<svg width="38" height="34" viewBox="0 0 38 34" fill="none" xmlns="http://www.w3.org/2000/svg">
<path d="M5.85718 6.57132V1.9999C5.85718 1.6839 5.60118 1.42847 5.28575 1.42847H2.42861C2.11318 1.42847 1.85718 1.6839 1.85718 1.9999C1.85718 2.3159 2.11318 2.57132 2.42861 2.57132H4.71432V6.57132V7.14275V20.857V21.4285V26.5713C4.71432 26.8873 4.97032 27.1428 5.28575 27.1428H9.30346C8.60346 27.6639 8.14289 28.4908 8.14289 29.4285C8.14289 31.0039 9.42461 32.2856 11 32.2856C12.5755 32.2856 13.8572 31.0039 13.8572 29.4285C13.8572 28.4908 13.3966 27.6639 12.6966 27.1428H24.732C24.032 27.6639 23.5715 28.4908 23.5715 29.4285C23.5715 31.0039 24.8532 32.2856 26.4286 32.2856C28.004 32.2856 29.2858 31.0039 29.2858 29.4285C29.2858 28.4908 28.8252 27.6639 28.1252 27.1428H31.5715C31.8869 27.1428 32.1429 26.8873 32.1429 26.5713C32.1429 26.2553 31.8869 25.9999 31.5715 25.9999H5.85718V21.4285H36.1429V6.57132H5.85718ZM11 31.1427C10.0549 31.1427 9.28575 30.3736 9.28575 29.4285C9.28575 28.4833 10.0549 27.7142 11 27.7142C11.9452 27.7142 12.7143 28.4833 12.7143 29.4285C12.7143 30.3736 11.9452 31.1427 11 31.1427ZM26.4286 31.1427C25.4835 31.1427 24.7143 30.3736 24.7143 29.4285C24.7143 28.4833 25.4835 27.7142 26.4286 27.7142C27.3738 27.7142 28.1429 28.4833 28.1429 29.4285C28.1429 30.3736 27.3738 31.1427 26.4286 31.1427ZM5.85718 12.2856H35V15.7142H5.85718V12.2856ZM35 11.1428H5.85718V7.71418H35V11.1428ZM5.85718 20.2856V16.857H35V20.2856H5.85718Z" stroke="#FBB03B" stroke-width="2"/>
</svg>
