<svg width="30" height="40" viewBox="0 0 30 40" fill="none" xmlns="http://www.w3.org/2000/svg">
<path d="M2.49158 39.1114C2.49158 39.6021 2.90059 39.9998 3.40516 39.9998H26.5952C27.0998 39.9998 27.5088 39.6021 27.5088 39.1114V10.3269H2.49158V39.1114ZM20.1391 15.2255H23.5651V34.5937H20.1391V15.2255ZM13.2872 15.2255H16.7132V34.5937H13.2872V15.2255ZM6.4353 15.2255H9.86126V34.5937H6.4353V15.2255Z" fill="white"/>
<path d="M22.7004 4.08266V0.888395C22.7004 0.397735 22.2914 0 21.7868 0H8.21319C7.70862 0 7.2996 0.397735 7.2996 0.888395V4.08266V4.63791V5.19316H0.913587C0.409013 5.19316 0 5.59089 0 6.08155V8.32813C0 8.81874 0.409013 9.21652 0.913587 9.21652H2.4914H27.5086H29.0864C29.591 9.21652 30 8.81874 30 8.32813V6.08155C30 5.59089 29.591 5.19316 29.0864 5.19316H22.7004V4.63791V4.08266ZM19.2744 5.01051H10.7256V4.63787V4.08262V3.33148H19.2744V4.08266V4.63791V5.01051Z" fill="white"/>
</svg>
