<svg width="32" height="38" viewBox="0 0 32 38" fill="none" xmlns="http://www.w3.org/2000/svg">
<path d="M31.5755 9.86337L23.0768 0.567396C22.7404 0.163224 22.3239 0 21.8273 0H1.66608C0.752941 0 0 0.73062 0 1.61669V36.3833C0 37.2694 0.752941 38 1.66608 38H30.3339C31.2471 38 31.9199 37.2694 32 36.461V10.9204C31.992 10.5163 31.8318 10.1898 31.5755 9.86337ZM23.4133 5.7206L26.6733 9.30374H23.4133V5.7206ZM28.6598 34.8521H3.33217V3.15566H20.1612V10.8349C20.1612 11.721 20.9141 12.4516 21.8273 12.4516H28.6598V34.8521Z" fill="white"/>
<path d="M7.33008 18.2732C7.33008 19.1593 8.08302 19.8899 8.99616 19.8899H22.9977C23.9108 19.8899 24.6637 19.1593 24.6637 18.2732C24.6637 17.3872 23.9108 16.6566 22.9977 16.6566H8.99616C8.08302 16.6566 7.33008 17.3872 7.33008 18.2732Z" fill="white"/>
<path d="M22.9977 26.6831H8.99616C8.08302 26.6831 7.33008 27.4137 7.33008 28.2998C7.33008 29.1859 8.08302 29.9165 8.99616 29.9165H22.9977C23.9108 29.9165 24.6637 29.1859 24.6637 28.2998C24.6637 27.4137 23.9108 26.6831 22.9977 26.6831Z" fill="white"/>
</svg>
