<svg xmlns="http://www.w3.org/2000/svg" width="138" height="129" viewBox="0 0 138 129"><defs><clipPath id="1b0ga"><path fill="#fff" d="M13 107V3h112v104"/></clipPath><clipPath id="1b0gb"><path fill="#fff" d="M33 131l-2.71-24H5.502L3 131"/></clipPath><clipPath id="1b0gc"><path fill="#fff" d="M135 131l-2.71-24H107.502L105 131"/></clipPath></defs><g><g><g/><g><path fill="none" stroke="#fbb03b" stroke-miterlimit="20" stroke-width="6" d="M13 107v0V3v0h112v104" clip-path="url(&quot;#1b0ga&quot;)"/></g><g><path fill="none" stroke="#fbb03b" stroke-miterlimit="20" stroke-width="6" d="M33 131v0l-2.71-24v0H19.423v0h-3.399v0H5.502v0L3 131v0" clip-path="url(&quot;#1b0gb&quot;)"/></g><g><path fill="none" stroke="#fbb03b" stroke-miterlimit="20" stroke-width="6" d="M135 131v0l-2.71-24v0h-10.867v0h-3.399v0h-10.522v0L105 131v0" clip-path="url(&quot;#1b0gc&quot;)"/></g><g><g/><g/><g><g><g transform="rotate(90 40 24)"><path fill="#fbb03b" d="M41.747 22.79H39.02v2.77h2.727z"/></g><g transform="rotate(90 60 24)"><path fill="#fbb03b" d="M61.137 22.79H58.41v2.77h2.727z"/></g><g transform="rotate(90 78 24)"><path fill="#fbb03b" d="M79.597 22.79H76.87v2.77h2.727z"/></g><g transform="rotate(90 97 24)"><path fill="#fbb03b" d="M98.977 22.79H96.25v2.77h2.727z"/></g></g><g transform="rotate(90 40.5 36)"><path fill="#fbb03b" d="M41.747 34.61H39.02v2.77h2.727z"/></g><g transform="rotate(90 60 36)"><path fill="#fbb03b" d="M61.137 34.61H58.41v2.77h2.727z"/></g><g transform="rotate(90 78 36)"><path fill="#fbb03b" d="M79.597 34.61H76.87v2.77h2.727z"/></g><g transform="rotate(90 97.5 36)"><path fill="#fbb03b" d="M98.977 34.61H96.25v2.77h2.727z"/></g><g><g transform="rotate(90 41 48)"><path fill="#fbb03b" d="M41.747 46.42H39.02v2.77h2.727z"/></g><g transform="rotate(90 60 48)"><path fill="#fbb03b" d="M61.137 46.42H58.41v2.77h2.727z"/></g><g transform="rotate(90 78 48)"><path fill="#fbb03b" d="M79.597 46.42H76.87v2.77h2.727z"/></g><g transform="rotate(90 98 48)"><path fill="#fbb03b" d="M98.977 46.42H96.25v2.77h2.727z"/></g></g><g><g transform="rotate(90 40.5 59.5)"><path fill="#fbb03b" d="M41.747 58.24H39.02v2.77h2.727z"/></g><g transform="rotate(90 60 59)"><path fill="#fbb03b" d="M61.137 58.24H58.41v2.77h2.727z"/></g><g transform="rotate(90 78 60)"><path fill="#fbb03b" d="M79.597 58.24H76.87v2.77h2.727z"/></g><g transform="rotate(90 97.5 59.5)"><path fill="#fbb03b" d="M98.977 58.24H96.25v2.77h2.727z"/></g></g><g><g transform="rotate(90 78 72)"><path fill="#fbb03b" d="M79.597 70.06H76.87v2.77h2.727z"/></g><g transform="rotate(90 40.5 71.5)"><path fill="#fbb03b" d="M41.747 70.06H39.02v2.77h2.727z"/></g><g transform="rotate(90 60 71)"><path fill="#fbb03b" d="M61.137 70.06H58.41v2.77h2.727z"/></g><g transform="rotate(90 97.5 71.5)"><path fill="#fbb03b" d="M98.977 70.06H96.25v2.77h2.727z"/></g></g></g></g><g><path fill="#fbb03b" d="M123 108h-13.5l-1.5 11H30l-1.5-11H15V5h108zm-8.5-91h-91v79.59h91z"/></g></g></g></svg>