<svg xmlns="http://www.w3.org/2000/svg" width="127" height="129" viewBox="0 0 127 129"><defs><clipPath id="nmhta"><path fill="#fff" d="M39.19 19h12v-8h-12z"/></clipPath><clipPath id="nmhtb"><path fill="#fff" d="M77.19 19h12v-8h-12z"/></clipPath><clipPath id="nmhtc"><path fill="#fff" d="M26.19 69h12v-8h-12z"/></clipPath><clipPath id="nmhtd"><path fill="#fff" d="M11.19 69h12v-8h-12z"/></clipPath><clipPath id="nmhte"><path fill="#fff" d="M106.19 69h12v-8h-12z"/></clipPath><clipPath id="nmhtf"><path fill="#fff" d="M91.19 69h12v-8h-12z"/></clipPath><clipPath id="nmhtg"><path fill="#fff" d="M51 75h26v54H51z"/></clipPath></defs><g><g><g><g><path fill="none" stroke="#fbb03b" stroke-miterlimit="20" stroke-width="6" d="M39.19 19v0h12v0-8 0h-12v0z" clip-path="url(&quot;#nmhta&quot;)"/></g><g/><g/></g><g><g><path fill="none" stroke="#fbb03b" stroke-miterlimit="20" stroke-width="6" d="M77.19 19v0h12v0-8 0h-12v0z" clip-path="url(&quot;#nmhtb&quot;)"/></g><g/><g/></g><g><g><path fill="none" stroke="#fbb03b" stroke-miterlimit="20" stroke-width="6" d="M26.19 69v0h12v0-8 0h-12v0z" clip-path="url(&quot;#nmhtc&quot;)"/></g><g/><g/></g><g><g><path fill="none" stroke="#fbb03b" stroke-miterlimit="20" stroke-width="6" d="M11.19 69v0h12v0-8 0h-12v0z" clip-path="url(&quot;#nmhtd&quot;)"/></g><g/><g/></g><g><g><path fill="none" stroke="#fbb03b" stroke-miterlimit="20" stroke-width="6" d="M106.19 69v0h12v0-8 0h-12v0z" clip-path="url(&quot;#nmhte&quot;)"/></g><g/><g/></g><g><g><path fill="none" stroke="#fbb03b" stroke-miterlimit="20" stroke-width="6" d="M91.19 69v0h12v0-8 0h-12v0z" clip-path="url(&quot;#nmhtf&quot;)"/></g><g/><g/></g><g/><g/><g/><g><path fill="#fbb03b" d="M51.19 54h9v7h8v-7h9v20h-26z"/><path fill="none" stroke="#fbb03b" stroke-miterlimit="20" stroke-width="3" d="M51.19 54v0h9v7h8v0-7 0h9v20h-26v0z"/></g><g/><g transform="rotate(160 22.5 24.5)"/><g transform="rotate(160 69 6.5)"/><g transform="rotate(160 106.5 6.5)"/><g transform="rotate(160 15.5 73)"/><g transform="rotate(160 39.5 33)"/><g transform="rotate(160 81 47.5)"/><g transform="rotate(160 47 83.5)"/><g transform="rotate(160 112 60)"/><g><path fill="#fbb03b" d="M51 75h26v54H51z"/><path fill="none" stroke="#fbb03b" stroke-miterlimit="20" stroke-width="6" d="M51 75v0h26v54H51v0z" clip-path="url(&quot;#nmhtg&quot;)"/></g></g></g></svg>