<svg xmlns="http://www.w3.org/2000/svg" width="110" height="128" viewBox="0 0 110 128"><defs><clipPath id="60s7a"><path fill="#fff" d="M28 102v-3.874C28 96.409 30.028 95 32.5 95s4.5 1.409 4.5 3.126V102"/></clipPath><clipPath id="60s7b"><path fill="#fff" d="M77 102v-3.874C77 96.409 79.028 95 81.5 95s4.5 1.409 4.5 3.126V102"/></clipPath><clipPath id="60s7c"><path fill="#fff" d="M9 102h94v26H9z"/></clipPath><clipPath id="60s7d"><path fill="#fff" d="M70 80H42V52h28z"/></clipPath><clipPath id="60s7e"><path fill="#fff" d="M2 31.301L56.199 0 110 32"/></clipPath><clipPath id="60s7f"><path fill="#fff" d="M103 38.1V105H9V37.512L56.41 11z"/></clipPath></defs><g><g><g><path fill="none" stroke="#fbb03b" stroke-miterlimit="20" stroke-width="6" d="M28 102v0-3.874C28 96.409 30.028 95 32.5 95s4.5 1.409 4.5 3.126V102" clip-path="url(&quot;#60s7a&quot;)"/></g><g><path fill="none" stroke="#fbb03b" stroke-miterlimit="20" stroke-width="6" d="M77 102v0-3.874C77 96.409 79.028 95 81.5 95s4.5 1.409 4.5 3.126V102" clip-path="url(&quot;#60s7b&quot;)"/></g><g><path fill="none" stroke="#fbb03b" stroke-miterlimit="20" stroke-width="6" d="M9 102v0h94v26H9v0z" clip-path="url(&quot;#60s7c&quot;)"/></g><g><path fill="none" stroke="#fbb03b" stroke-miterlimit="20" stroke-width="6" d="M70 80v0H56v0H42v0-28 0h14v0h14v0z" clip-path="url(&quot;#60s7d&quot;)"/></g><g/><g><path fill="none" stroke="#fbb03b" stroke-miterlimit="20" stroke-width="6" d="M2 31.301v0L56.199 0v0L110 32v0" clip-path="url(&quot;#60s7e&quot;)"/></g><g><path fill="none" stroke="#fbb03b" stroke-miterlimit="20" stroke-width="6" d="M103 38.1V105H9v0-67.488 0L56.41 11v0z" clip-path="url(&quot;#60s7f&quot;)"/></g></g></g></svg>