<svg xmlns="http://www.w3.org/2000/svg" width="122" height="110" viewBox="0 0 122 110"><defs><clipPath id="3b6ya"><path fill="#fff" d="M39 77c0 8.284-6.716 15-15 15-8.284 0-15-6.716-15-15 0-8.284 6.716-15 15-15 8.284 0 15 6.716 15 15z"/></clipPath><clipPath id="3b6yb"><path fill="#fff" d="M114 77c0 8.284-6.716 15-15 15-8.284 0-15-6.716-15-15 0-8.284 6.716-15 15-15 8.284 0 15 6.716 15 15z"/></clipPath><clipPath id="3b6yc"><path fill="#fff" d="M.5 49.5h70V11h30.028L122 51v26h-6s-1.5-17-17-17-17 17-17 17H41s-1.5-17-17-17S7 77 7 77H.5z"/></clipPath><clipPath id="3b6yd"><path fill="#fff" d="M0 92h122v18H0z"/></clipPath></defs><g><g><g><path fill="none" stroke="#fbb03b" stroke-miterlimit="20" stroke-width="6" d="M39 77c0 8.284-6.716 15-15 15-8.284 0-15-6.716-15-15 0-8.284 6.716-15 15-15 8.284 0 15 6.716 15 15z" clip-path="url(&quot;#3b6ya&quot;)"/></g><g><path fill="none" stroke="#fbb03b" stroke-miterlimit="20" stroke-width="6" d="M114 77c0 8.284-6.716 15-15 15-8.284 0-15-6.716-15-15 0-8.284 6.716-15 15-15 8.284 0 15 6.716 15 15z" clip-path="url(&quot;#3b6yb&quot;)"/></g><g><path fill="none" stroke="#fbb03b" stroke-miterlimit="20" stroke-width="6" d="M.5 49.5v0h70v0V11v0h30.028v0L122 51v26h-6v0s-1.5-17-17-17-17 17-17 17v0H41v0s-1.5-17-17-17S7 77 7 77v0H.5v0z" clip-path="url(&quot;#3b6yc&quot;)"/></g><g/><g><path fill="none" stroke="#fbb03b" stroke-miterlimit="20" stroke-width="6" d="M0 92v0h122v18H0v0z" clip-path="url(&quot;#3b6yd&quot;)"/></g></g></g></svg>