<svg xmlns="http://www.w3.org/2000/svg" width="91" height="97" viewBox="0 0 91 97"><g><g><g><g/><g/><g transform="rotate(90 22.5 44)"/><g transform="rotate(90 3.5 61)"/><g transform="rotate(90 41.5 27)"/><g transform="rotate(90 60.5 10)"/><g/><g/></g><g><g/><g/><g transform="rotate(90 34.5 74)"/><g transform="rotate(90 15.5 91)"/><g transform="rotate(90 53.5 57)"/><g transform="rotate(90 72.5 40)"/><g/><g/></g><g transform="rotate(68.2 47.5 51)"/><g transform="rotate(68.2 28.5 51)"/><g transform="rotate(68.2 28.5 68)"/><g transform="rotate(68.2 9.5 68)"/><g transform="rotate(68.2 9.5 68)"/><g transform="rotate(68.2 47.5 34)"/><g transform="rotate(68.2 66.5 34)"/><g transform="rotate(68.2 66.5 17)"/><g><path fill="#fbb03b" d="M59.5 17.5h-19L53 48h18.5z"/></g><g><path fill="#fbb03b" d="M21 52H2l12.5 30.5H33z"/></g><g><path fill="#fbb03b" d="M41 35H22l12.5 30.5H53z"/></g></g></g></svg>