<svg xmlns="http://www.w3.org/2000/svg" width="139" height="85" viewBox="0 0 139 85"><defs><clipPath id="wno0a"><path fill="#fff" d="M96 85V13H86l-6 50.857H10V85z"/></clipPath><clipPath id="wno0b"><path fill="#fff" d="M93 13h33v72H93z"/></clipPath><clipPath id="wno0c"><path fill="#fff" d="M17 13h49v19.5H19.5z"/></clipPath><clipPath id="wno0d"><path fill="#fff" d="M22 32.5H9V13h10.4z"/></clipPath><clipPath id="wno0e"><path fill="#fff" d="M9 0h117v16H9z"/></clipPath></defs><g><g><g/><g/><g/><g/><g><path fill="none" stroke="#fbb03b" stroke-miterlimit="20" stroke-width="6" d="M96 85v0-72 0H86v0l-6 50.857v0H26v0H10V85z" clip-path="url(&quot;#wno0a&quot;)"/></g><g><path fill="none" stroke="#fbb03b" stroke-miterlimit="20" stroke-width="6" d="M93 13v0h33v72H93v0z" clip-path="url(&quot;#wno0b&quot;)"/></g><g><path fill="none" stroke="#fbb03b" stroke-miterlimit="20" stroke-width="6" d="M17 13v0h49v19.5H19.5v0z" clip-path="url(&quot;#wno0c&quot;)"/></g><g><path fill="none" stroke="#fbb03b" stroke-miterlimit="20" stroke-width="6" d="M22 32.5v0H9v0V13v0h10.4v0z" clip-path="url(&quot;#wno0d&quot;)"/></g><g><path fill="none" stroke="#fbb03b" stroke-miterlimit="20" stroke-width="6" d="M9 0v0h117v16H9v0z" clip-path="url(&quot;#wno0e&quot;)"/></g></g></g></svg>