<svg xmlns="http://www.w3.org/2000/svg" width="127" height="129" viewBox="0 0 127 129"><defs><clipPath id="ethga"><path fill="#fff" d="M39.19 19h12v-8h-12z"/></clipPath><clipPath id="ethgb"><path fill="#fff" d="M77.19 19h12v-8h-12z"/></clipPath><clipPath id="ethgc"><path fill="#fff" d="M26.19 69h12v-8h-12z"/></clipPath><clipPath id="ethgd"><path fill="#fff" d="M11.19 69h12v-8h-12z"/></clipPath><clipPath id="ethge"><path fill="#fff" d="M106.19 69h12v-8h-12z"/></clipPath><clipPath id="ethgf"><path fill="#fff" d="M91.19 69h12v-8h-12z"/></clipPath></defs><g><g><g><g><path fill="none" stroke="#fbb03b" stroke-miterlimit="20" stroke-width="6" d="M39.19 19v0h12v0-8 0h-12v0z" clip-path="url(&quot;#ethga&quot;)"/></g><g/><g/></g><g><g><path fill="none" stroke="#fbb03b" stroke-miterlimit="20" stroke-width="6" d="M77.19 19v0h12v0-8 0h-12v0z" clip-path="url(&quot;#ethgb&quot;)"/></g><g/><g/></g><g><g><path fill="none" stroke="#fbb03b" stroke-miterlimit="20" stroke-width="6" d="M26.19 69v0h12v0-8 0h-12v0z" clip-path="url(&quot;#ethgc&quot;)"/></g><g/><g/></g><g><g><path fill="none" stroke="#fbb03b" stroke-miterlimit="20" stroke-width="6" d="M11.19 69v0h12v0-8 0h-12v0z" clip-path="url(&quot;#ethgd&quot;)"/></g><g/><g/></g><g><g><path fill="none" stroke="#fbb03b" stroke-miterlimit="20" stroke-width="6" d="M106.19 69v0h12v0-8 0h-12v0z" clip-path="url(&quot;#ethge&quot;)"/></g><g/><g/></g><g><g><path fill="none" stroke="#fbb03b" stroke-miterlimit="20" stroke-width="6" d="M91.19 69v0h12v0-8 0h-12v0z" clip-path="url(&quot;#ethgf&quot;)"/></g><g/><g/></g><g/><g/><g/><g/><g/><g transform="rotate(160 22.5 24.5)"/><g transform="rotate(160 69 6.5)"/><g transform="rotate(160 106.5 6.5)"/><g transform="rotate(160 15.5 73)"/><g transform="rotate(160 39.5 33)"/><g transform="rotate(160 81 47.5)"/><g transform="rotate(160 47 83.5)"/><g transform="rotate(160 112 60)"/></g></g></svg>