<svg xmlns="http://www.w3.org/2000/svg" width="114" height="131" viewBox="0 0 114 131"><defs><clipPath id="jvmea"><path fill="#fff" d="M22 127H6v4h16z"/></clipPath><clipPath id="jvmeb"><path fill="#fff" d="M2 32.28L57.202 0 112 33"/></clipPath><clipPath id="jvmec"><path fill="#fff" d="M105 105H9v12h96z"/></clipPath><clipPath id="jvmed"><path fill="#fff" d="M105 39.677V108H9V39.076L57.42 12z"/></clipPath><clipPath id="jvmee"><path fill="#fff" d="M69 70H47v38h22z"/></clipPath><clipPath id="jvmef"><path fill="#fff" d="M9 114h10v16H9z"/></clipPath><clipPath id="jvmeg"><path fill="#fff" d="M108 127H92v4h16z"/></clipPath><clipPath id="jvmeh"><path fill="#fff" d="M95 114h10v16H95z"/></clipPath></defs><g><g><g><path fill="none" stroke="#fbb03b" stroke-miterlimit="20" stroke-width="6" d="M22 127v0H6v4h16v0z" clip-path="url(&quot;#jvmea&quot;)"/></g><g><path fill="none" stroke="#fbb03b" stroke-miterlimit="20" stroke-width="6" d="M2 32.28v0L57.202 0v0L112 33v0" clip-path="url(&quot;#jvmeb&quot;)"/></g><g><path fill="none" stroke="#fbb03b" stroke-miterlimit="20" stroke-width="6" d="M105 105v0H9v12h96v0z" clip-path="url(&quot;#jvmec&quot;)"/></g><g><path fill="none" stroke="#fbb03b" stroke-miterlimit="20" stroke-width="6" d="M105 39.677V108H9v0-68.924 0L57.42 12v0z" clip-path="url(&quot;#jvmed&quot;)"/></g><g><path fill="none" stroke="#fbb03b" stroke-miterlimit="20" stroke-width="6" d="M69 70v0H47v38h22v0z" clip-path="url(&quot;#jvmee&quot;)"/></g><g transform="rotate(90 61.5 88.5)"><path fill="#fbb03b" d="M63 87h-3v3h3z"/></g><g><path fill="none" stroke="#fbb03b" stroke-miterlimit="20" stroke-width="6" d="M9 114v0h10v16H9v0z" clip-path="url(&quot;#jvmef&quot;)"/></g><g><path fill="none" stroke="#fbb03b" stroke-miterlimit="20" stroke-width="6" d="M108 127v0H92v4h16v0z" clip-path="url(&quot;#jvmeg&quot;)"/></g><g><path fill="none" stroke="#fbb03b" stroke-miterlimit="20" stroke-width="6" d="M95 114v0h10v16H95v0z" clip-path="url(&quot;#jvmeh&quot;)"/></g></g></g></svg>