<svg xmlns="http://www.w3.org/2000/svg" width="120" height="132" viewBox="0 0 120 132"><defs><clipPath id="lrgla"><path fill="#fff" d="M120 132V32h-13.793l-8.276 72.222H22.069L14.483 32H0v100z"/></clipPath><clipPath id="lrglb"><path fill="#fff" d="M0 0h120v20H0z"/></clipPath><clipPath id="lrglc"><path fill="#fff" d="M58 84c0 9.941-8.059 18-18 18s-18-8.059-18-18 8.059-18 18-18 18 8.059 18 18z"/></clipPath><clipPath id="lrgld"><path fill="#fff" d="M98 84c0 9.941-8.059 18-18 18s-18-8.059-18-18 8.059-18 18-18 18 8.059 18 18z"/></clipPath><clipPath id="lrgle"><path fill="#fff" d="M78 52c0 9.941-8.059 18-18 18s-18-8.059-18-18 8.059-18 18-18 18 8.059 18 18z"/></clipPath></defs><g><g><g><path fill="#fbb03b" d="M120 132V32h-13.793l-8.276 72.222H22.069L14.483 32H0v100z"/><path fill="none" stroke="#fbb03b" stroke-miterlimit="20" stroke-width="6" d="M120 132v0V32v0h-13.793v0l-8.276 72.222v0H22.069v0L14.483 32v0H0v100z" clip-path="url(&quot;#lrgla&quot;)"/></g><g><path fill="#fbb03b" d="M0 0h120v20H0z"/><path fill="none" stroke="#fbb03b" stroke-miterlimit="20" stroke-width="6" d="M0 0v0h120v20H0v0z" clip-path="url(&quot;#lrglb&quot;)"/></g><g><path fill="none" stroke="#fbb03b" stroke-miterlimit="20" stroke-width="6" d="M58 84c0 9.941-8.059 18-18 18s-18-8.059-18-18 8.059-18 18-18 18 8.059 18 18z" clip-path="url(&quot;#lrglc&quot;)"/></g><g><path fill="none" stroke="#fbb03b" stroke-miterlimit="20" stroke-width="6" d="M98 84c0 9.941-8.059 18-18 18s-18-8.059-18-18 8.059-18 18-18 18 8.059 18 18z" clip-path="url(&quot;#lrgld&quot;)"/></g><g><path fill="none" stroke="#fbb03b" stroke-miterlimit="20" stroke-width="6" d="M78 52c0 9.941-8.059 18-18 18s-18-8.059-18-18 8.059-18 18-18 18 8.059 18 18z" clip-path="url(&quot;#lrgle&quot;)"/></g></g></g></svg>