<svg width="15" height="22" viewBox="0 0 15 22" fill="none" xmlns="http://www.w3.org/2000/svg">
<rect x="0.5" y="0.5" width="14" height="13.1824" stroke="#FBB03B"/>
<rect x="5.83325" y="5.0769" width="3.33333" height="3.38462" fill="#FBB03B"/>
<path d="M8.51513 13.5385C8.50417 14.1682 8.43018 14.6656 8.29318 15.0307C8.15617 15.3959 7.87668 15.8007 7.45471 16.2452L6.37785 17.3168C5.91751 17.8195 5.68734 18.3593 5.68734 18.9361C5.68734 19.4917 5.83805 19.9256 6.13946 20.2378C6.44087 20.5553 6.87929 20.7141 7.45471 20.7141C8.01369 20.7141 8.46306 20.5712 8.80284 20.2855C9.14261 19.9997 9.3125 19.6161 9.3125 19.1345L10.8333 19.1345C10.8223 19.9918 10.5072 20.6823 9.88792 21.2062C9.26317 21.7354 8.4521 22 7.45471 22C6.41895 22 5.61336 21.7301 5.03794 21.1904C4.45704 20.6559 4.16659 19.9203 4.16659 18.9837C4.16659 18.0576 4.61048 17.1448 5.49828 16.2452L6.39429 15.3879C6.79434 14.9593 6.99437 14.3428 6.99437 13.5385L8.51513 13.5385Z" fill="#FBB03B"/>
</svg>
