<svg width="20" height="20" viewBox="0 0 20 20" fill="none" xmlns="http://www.w3.org/2000/svg">
<path d="M2.28295 18.7731L7.45534 13.6087C8.67737 14.6268 10.2391 15.2392 11.9447 15.2392C15.836 15.2392 19 12.0483 19 8.12327C19 4.19828 15.8323 1 11.941 1C8.04974 1 4.88576 4.1909 4.88576 8.11589C4.88576 9.78328 5.45801 11.3179 6.41422 12.5352L1.22705 17.7181C0.924316 18.0206 0.924316 18.4706 1.22705 18.7731C1.52979 19.0756 1.98021 19.0756 2.28295 18.7731ZM11.941 2.51245C14.9979 2.51245 17.4826 5.02828 17.4826 8.11589C17.4826 11.2035 14.9979 13.7193 11.941 13.7193C8.88412 13.7193 6.39945 11.2035 6.39945 8.11589C6.39945 5.02828 8.88781 2.51245 11.941 2.51245Z" fill="#4D4D4D" stroke="#4D4D4D"/>
</svg>
