<svg xmlns="http://www.w3.org/2000/svg" width="26" height="26" viewBox="0 0 26 26"><defs><clipPath id="ps6ca"><path fill="#fff" d="M0 0h7.09v7.09H0z"/></clipPath><clipPath id="ps6cb"><path fill="#fff" d="M9.45 0h7.09v7.09H9.45z"/></clipPath><clipPath id="ps6cc"><path fill="#fff" d="M18.91 0H26v7.09h-7.09z"/></clipPath><clipPath id="ps6cd"><path fill="#fff" d="M0 9.45h7.09v7.09H0z"/></clipPath><clipPath id="ps6ce"><path fill="#fff" d="M9.45 9.45h7.09v7.09H9.45z"/></clipPath><clipPath id="ps6cf"><path fill="#fff" d="M18.91 9.45H26v7.09h-7.09z"/></clipPath><clipPath id="ps6cg"><path fill="#fff" d="M0 18.91h7.09V26H0z"/></clipPath><clipPath id="ps6ch"><path fill="#fff" d="M9.45 18.91h7.09V26H9.45z"/></clipPath><clipPath id="ps6ci"><path fill="#fff" d="M18.91 18.91H26V26h-7.09z"/></clipPath></defs><g><g><g><path fill="none" stroke="#4d4d4d" stroke-miterlimit="20" stroke-width="4" d="M0 0v0h7.09v7.09H0v0z" clip-path="url(&quot;#ps6ca&quot;)"/></g><g><path fill="none" stroke="#4d4d4d" stroke-miterlimit="20" stroke-width="4" d="M9.45 0v0h7.09v7.09H9.45v0z" clip-path="url(&quot;#ps6cb&quot;)"/></g><g><path fill="none" stroke="#4d4d4d" stroke-miterlimit="20" stroke-width="4" d="M18.91 0v0H26v7.09h-7.09v0z" clip-path="url(&quot;#ps6cc&quot;)"/></g><g><path fill="none" stroke="#4d4d4d" stroke-miterlimit="20" stroke-width="4" d="M0 9.45v0h7.09v7.09H0v0z" clip-path="url(&quot;#ps6cd&quot;)"/></g><g><path fill="none" stroke="#4d4d4d" stroke-miterlimit="20" stroke-width="4" d="M9.45 9.45v0h7.09v7.09H9.45v0z" clip-path="url(&quot;#ps6ce&quot;)"/></g><g><path fill="none" stroke="#4d4d4d" stroke-miterlimit="20" stroke-width="4" d="M18.91 9.45v0H26v7.09h-7.09v0z" clip-path="url(&quot;#ps6cf&quot;)"/></g><g><path fill="none" stroke="#4d4d4d" stroke-miterlimit="20" stroke-width="4" d="M0 18.91v0h7.09V26H0v0z" clip-path="url(&quot;#ps6cg&quot;)"/></g><g><path fill="none" stroke="#4d4d4d" stroke-miterlimit="20" stroke-width="4" d="M9.45 18.91v0h7.09V26H9.45v0z" clip-path="url(&quot;#ps6ch&quot;)"/></g><g><path fill="none" stroke="#4d4d4d" stroke-miterlimit="20" stroke-width="4" d="M18.91 18.91v0H26V26h-7.09v0z" clip-path="url(&quot;#ps6ci&quot;)"/></g></g></g></svg>