<svg width="140" height="140" viewBox="0 0 140 140" fill="none" xmlns="http://www.w3.org/2000/svg">
<line x1="27.5" y1="71.5" x2="46.5" y2="71.5" stroke="white" stroke-width="3" stroke-linecap="square"/>
<line x1="46.5" y1="54.5" x2="65.5" y2="54.5" stroke="white" stroke-width="3" stroke-linecap="square"/>
<line x1="46.5" y1="68.5" x2="46.5" y2="57.5" stroke="white" stroke-width="3" stroke-linecap="square"/>
<line x1="27.5" y1="85.5" x2="27.5" y2="74.5" stroke="white" stroke-width="3" stroke-linecap="square"/>
<line x1="65.5" y1="51.5" x2="65.5" y2="40.5" stroke="white" stroke-width="3" stroke-linecap="square"/>
<line x1="84.5" y1="34.5" x2="84.5" y2="23.5" stroke="white" stroke-width="3" stroke-linecap="square"/>
<line x1="65.5" y1="37.5" x2="84.5" y2="37.5" stroke="white" stroke-width="3" stroke-linecap="square"/>
<line x1="84.5" y1="20.5" x2="103.5" y2="20.5" stroke="white" stroke-width="3" stroke-linecap="square"/>
<line x1="39.5" y1="101.5" x2="58.5" y2="101.5" stroke="white" stroke-width="3" stroke-linecap="square"/>
<line x1="58.5" y1="84.5" x2="77.5" y2="84.5" stroke="white" stroke-width="3" stroke-linecap="square"/>
<line x1="58.5" y1="98.5" x2="58.5" y2="87.5" stroke="white" stroke-width="3" stroke-linecap="square"/>
<line x1="39.5" y1="115.5" x2="39.5" y2="104.5" stroke="white" stroke-width="3" stroke-linecap="square"/>
<line x1="77.5" y1="81.5" x2="77.5" y2="70.5" stroke="white" stroke-width="3" stroke-linecap="square"/>
<line x1="96.5" y1="64.5" x2="96.5" y2="53.5" stroke="white" stroke-width="3" stroke-linecap="square"/>
<line x1="77.5" y1="67.5" x2="96.5" y2="67.5" stroke="white" stroke-width="3" stroke-linecap="square"/>
<line x1="96.5" y1="50.5" x2="113.5" y2="50.5" stroke="white" stroke-width="3" stroke-linecap="square"/>
<line x1="65.9498" y1="56.8356" x2="76.8356" y2="84.0502" stroke="white" stroke-width="3" stroke-linecap="square"/>
<line x1="46.9498" y1="56.8356" x2="57.8356" y2="84.0502" stroke="white" stroke-width="3" stroke-linecap="square"/>
<line x1="46.9498" y1="73.8356" x2="57.8356" y2="101.05" stroke="white" stroke-width="3" stroke-linecap="square"/>
<line x1="27.9498" y1="73.8356" x2="38.8356" y2="101.05" stroke="white" stroke-width="3" stroke-linecap="square"/>
<line x1="27.9498" y1="73.8356" x2="38.8356" y2="101.05" stroke="white" stroke-width="3" stroke-linecap="square"/>
<line x1="65.9498" y1="39.8356" x2="76.8356" y2="67.0502" stroke="white" stroke-width="3" stroke-linecap="square"/>
<line x1="84.9498" y1="39.8356" x2="95.8356" y2="67.0502" stroke="white" stroke-width="3" stroke-linecap="square"/>
<line x1="84.9498" y1="22.8356" x2="95.8356" y2="50.0502" stroke="white" stroke-width="3" stroke-linecap="square"/>
<path d="M83.5 36.5H64.5L77 67H95.5L83.5 36.5Z" fill="white" stroke="white"/>
<path d="M45 71H26L38.5 101.5H57L45 71Z" fill="white" stroke="white"/>
<path d="M65 54H46L58.5 84.5H77L65 54Z" fill="white" stroke="white"/>
</svg>
