<svg width="140" height="140" viewBox="0 0 140 140" fill="none" xmlns="http://www.w3.org/2000/svg">
<path fill-rule="evenodd" clip-rule="evenodd" d="M10 56.5H130V83.5H10V56.5ZM34.5 70C34.5 74.4183 30.9183 78 26.5 78C22.0817 78 18.5 74.4183 18.5 70C18.5 65.5817 22.0817 62 26.5 62C30.9183 62 34.5 65.5817 34.5 70ZM44.5 78C48.9183 78 52.5 74.4183 52.5 70C52.5 65.5817 48.9183 62 44.5 62C40.0817 62 36.5 65.5817 36.5 70C36.5 74.4183 40.0817 78 44.5 78ZM70.5 70C70.5 74.4183 66.9183 78 62.5 78C58.0817 78 54.5 74.4183 54.5 70C54.5 65.5817 58.0817 62 62.5 62C66.9183 62 70.5 65.5817 70.5 70ZM80.5 78C84.9183 78 88.5 74.4183 88.5 70C88.5 65.5817 84.9183 62 80.5 62C76.0817 62 72.5 65.5817 72.5 70C72.5 74.4183 76.0817 78 80.5 78ZM106.5 70C106.5 74.4183 102.918 78 98.5 78C94.0817 78 90.5 74.4183 90.5 70C90.5 65.5817 94.0817 62 98.5 62C102.918 62 106.5 65.5817 106.5 70ZM116.5 78C120.918 78 124.5 74.4183 124.5 70C124.5 65.5817 120.918 62 116.5 62C112.082 62 108.5 65.5817 108.5 70C108.5 74.4183 112.082 78 116.5 78Z" fill="white"/>
<path d="M130 56.5H131.5V55H130V56.5ZM10 56.5V55H8.5V56.5H10ZM130 83.5V85H131.5V83.5H130ZM10 83.5H8.5V85H10V83.5ZM130 55H10V58H130V55ZM131.5 83.5V56.5H128.5V83.5H131.5ZM10 85H130V82H10V85ZM8.5 56.5V83.5H11.5V56.5H8.5ZM26.5 79.5C31.7467 79.5 36 75.2467 36 70H33C33 73.5899 30.0899 76.5 26.5 76.5V79.5ZM17 70C17 75.2467 21.2533 79.5 26.5 79.5V76.5C22.9101 76.5 20 73.5899 20 70H17ZM26.5 60.5C21.2533 60.5 17 64.7533 17 70H20C20 66.4101 22.9101 63.5 26.5 63.5V60.5ZM36 70C36 64.7533 31.7467 60.5 26.5 60.5V63.5C30.0899 63.5 33 66.4101 33 70H36ZM51 70C51 73.5899 48.0899 76.5 44.5 76.5V79.5C49.7467 79.5 54 75.2467 54 70H51ZM44.5 63.5C48.0899 63.5 51 66.4101 51 70H54C54 64.7533 49.7467 60.5 44.5 60.5V63.5ZM38 70C38 66.4101 40.9101 63.5 44.5 63.5V60.5C39.2533 60.5 35 64.7533 35 70H38ZM44.5 76.5C40.9101 76.5 38 73.5899 38 70H35C35 75.2467 39.2533 79.5 44.5 79.5V76.5ZM62.5 79.5C67.7467 79.5 72 75.2467 72 70H69C69 73.5899 66.0899 76.5 62.5 76.5V79.5ZM53 70C53 75.2467 57.2533 79.5 62.5 79.5V76.5C58.9101 76.5 56 73.5899 56 70H53ZM62.5 60.5C57.2533 60.5 53 64.7533 53 70H56C56 66.4101 58.9101 63.5 62.5 63.5V60.5ZM72 70C72 64.7533 67.7467 60.5 62.5 60.5V63.5C66.0899 63.5 69 66.4101 69 70H72ZM87 70C87 73.5899 84.0899 76.5 80.5 76.5V79.5C85.7467 79.5 90 75.2467 90 70H87ZM80.5 63.5C84.0899 63.5 87 66.4101 87 70H90C90 64.7533 85.7467 60.5 80.5 60.5V63.5ZM74 70C74 66.4101 76.9101 63.5 80.5 63.5V60.5C75.2533 60.5 71 64.7533 71 70H74ZM80.5 76.5C76.9101 76.5 74 73.5899 74 70H71C71 75.2467 75.2533 79.5 80.5 79.5V76.5ZM98.5 79.5C103.747 79.5 108 75.2467 108 70H105C105 73.5899 102.09 76.5 98.5 76.5V79.5ZM89 70C89 75.2467 93.2533 79.5 98.5 79.5V76.5C94.9101 76.5 92 73.5899 92 70H89ZM98.5 60.5C93.2533 60.5 89 64.7533 89 70H92C92 66.4101 94.9101 63.5 98.5 63.5V60.5ZM108 70C108 64.7533 103.747 60.5 98.5 60.5V63.5C102.09 63.5 105 66.4101 105 70H108ZM123 70C123 73.5899 120.09 76.5 116.5 76.5V79.5C121.747 79.5 126 75.2467 126 70H123ZM116.5 63.5C120.09 63.5 123 66.4101 123 70H126C126 64.7533 121.747 60.5 116.5 60.5V63.5ZM110 70C110 66.4101 112.91 63.5 116.5 63.5V60.5C111.253 60.5 107 64.7533 107 70H110ZM116.5 76.5C112.91 76.5 110 73.5899 110 70H107C107 75.2467 111.253 79.5 116.5 79.5V76.5Z" fill="white"/>
<path d="M23 136V82H10V136" stroke="white" stroke-width="3"/>
<path d="M130 136V82H117V136" stroke="white" stroke-width="3"/>
<path d="M117 4V58H130V4" stroke="white" stroke-width="3"/>
<path d="M10 4V58H23V4" stroke="white" stroke-width="3"/>
</svg>
