<svg width="140" height="140" viewBox="0 0 140 140" fill="none" xmlns="http://www.w3.org/2000/svg">
<path d="M20.5001 133.5V132.5H33.5001V133.5H20.5001Z" stroke="white" stroke-width="3" stroke-miterlimit="10"/>
<mask id="path-2-inside-1" fill="white">
<path d="M15.0001 36.2793L70.2025 4L125 37"/>
</mask>
<path d="M70.2025 4L71.7501 1.43004L70.225 0.511575L68.6881 1.41026L70.2025 4ZM16.5144 38.8691L71.7168 6.58974L68.6881 1.41026L13.4857 33.6896L16.5144 38.8691ZM68.6548 6.56996L123.452 39.57L126.548 34.43L71.7501 1.43004L68.6548 6.56996Z" fill="white" mask="url(#path-2-inside-1)"/>
<path d="M23.5001 119.5V110.5H116.5V119.5H23.5001Z" stroke="white" stroke-width="3" stroke-miterlimit="10"/>
<path d="M70.4048 17.7268L116.5 44.5398V110.5H23.5001V43.9563L70.4048 17.7268Z" stroke="white" stroke-width="3" stroke-miterlimit="10"/>
<path d="M61.5001 110.5V75.5H80.5001V110.5H61.5001Z" stroke="white" stroke-width="3" stroke-miterlimit="10"/>
<mask id="path-7-inside-2" fill="white">
<path d="M76.0001 94V91H73.0001V94H76.0001Z"/>
</mask>
<path d="M76.0001 91H79.0001V88H76.0001V91ZM76.0001 94V97H79.0001V94H76.0001ZM73.0001 94H70.0001V97H73.0001V94ZM73.0001 91V88H70.0001V91H73.0001ZM73.0001 91V94H79.0001V91H73.0001ZM76.0001 91H73.0001V97H76.0001V91ZM76.0001 94V91H70.0001V94H76.0001ZM73.0001 94H76.0001V88H73.0001V94Z" fill="white" mask="url(#path-7-inside-2)"/>
<rect x="23.5001" y="119.5" width="7" height="13" stroke="white" stroke-width="3"/>
<path d="M106.5 133.5V132.5H119.5V133.5H106.5Z" stroke="white" stroke-width="3" stroke-miterlimit="10"/>
<rect x="109.5" y="119.5" width="7" height="13" stroke="white" stroke-width="3"/>
</svg>
