<svg width="140" height="140" viewBox="0 0 140 140" fill="none" xmlns="http://www.w3.org/2000/svg">
<line x1="26.5" y1="71.5" x2="45.5" y2="71.5" stroke="white" stroke-width="3" stroke-linecap="square"/>
<line x1="45.5" y1="54.5" x2="64.5" y2="54.5" stroke="white" stroke-width="3" stroke-linecap="square"/>
<line x1="45.5" y1="68.5" x2="45.5" y2="57.5" stroke="white" stroke-width="3" stroke-linecap="square"/>
<line x1="26.5" y1="85.5" x2="26.5" y2="74.5" stroke="white" stroke-width="3" stroke-linecap="square"/>
<line x1="64.5" y1="51.5" x2="64.5" y2="40.5" stroke="white" stroke-width="3" stroke-linecap="square"/>
<line x1="83.5" y1="34.5" x2="83.5" y2="23.5" stroke="white" stroke-width="3" stroke-linecap="square"/>
<line x1="64.5" y1="37.5" x2="83.5" y2="37.5" stroke="white" stroke-width="3" stroke-linecap="square"/>
<line x1="83.5" y1="20.5" x2="102.5" y2="20.5" stroke="white" stroke-width="3" stroke-linecap="square"/>
<line x1="38.5" y1="101.5" x2="57.5" y2="101.5" stroke="white" stroke-width="3" stroke-linecap="square"/>
<line x1="57.5" y1="84.5" x2="76.5" y2="84.5" stroke="white" stroke-width="3" stroke-linecap="square"/>
<line x1="57.5" y1="98.5" x2="57.5" y2="87.5" stroke="white" stroke-width="3" stroke-linecap="square"/>
<line x1="38.5" y1="115.5" x2="38.5" y2="104.5" stroke="white" stroke-width="3" stroke-linecap="square"/>
<line x1="76.5" y1="81.5" x2="76.5" y2="70.5" stroke="white" stroke-width="3" stroke-linecap="square"/>
<line x1="95.5" y1="71.5" x2="95.5" y2="70.5" stroke="white" stroke-width="3" stroke-linecap="square"/>
<line x1="82.5" y1="84.5" x2="82.5" y2="73.5" stroke="white" stroke-width="3" stroke-linecap="square"/>
<line x1="95.5" y1="64.5" x2="95.5" y2="53.5" stroke="white" stroke-width="3" stroke-linecap="square"/>
<line x1="76.5" y1="67.5" x2="95.5" y2="67.5" stroke="white" stroke-width="3" stroke-linecap="square"/>
<line x1="82.5" y1="73.5" x2="95.5" y2="73.5" stroke="white" stroke-width="3" stroke-linecap="square"/>
<line x1="79.5" y1="84.5" x2="80.5" y2="84.5" stroke="white" stroke-width="3" stroke-linecap="square"/>
<line x1="95.5" y1="50.5" x2="112.5" y2="50.5" stroke="white" stroke-width="3" stroke-linecap="square"/>
<line x1="64.9498" y1="56.8356" x2="75.7201" y2="83.7615" stroke="white" stroke-width="3" stroke-linecap="square"/>
<line x1="64.9498" y1="39.8356" x2="75.7201" y2="66.7615" stroke="white" stroke-width="3" stroke-linecap="square"/>
<line x1="83.9498" y1="39.8356" x2="94.7201" y2="66.7615" stroke="white" stroke-width="3" stroke-linecap="square"/>
<path d="M82.5 36.5H63.5L76 67H94.5L82.5 36.5Z" fill="white" stroke="white"/>
</svg>
