<svg width="140" height="140" viewBox="0 0 140 140" fill="none" xmlns="http://www.w3.org/2000/svg">
<mask id="path-1-inside-1" fill="white">
<path d="M42 108V104.126C42 102.409 44.0282 101 46.5 101C48.9718 101 51 102.409 51 104.126V108"/>
</mask>
<path d="M45 108V104.126H39V108H45ZM45 104.126C45 104.536 44.7588 104.574 45.0345 104.383C45.2937 104.203 45.8061 104 46.5 104V98C44.7221 98 42.9845 98.5015 41.6116 99.4551C40.2553 100.397 39 101.999 39 104.126H45ZM46.5 104C47.1939 104 47.7063 104.203 47.9655 104.383C48.2412 104.574 48 104.536 48 104.126H54C54 101.999 52.7447 100.397 51.3884 99.4551C50.0155 98.5015 48.2779 98 46.5 98V104ZM48 104.126V108H54V104.126H48Z" fill="white" mask="url(#path-1-inside-1)"/>
<mask id="path-3-inside-2" fill="white">
<path d="M91 108V104.126C91 102.409 93.0282 101 95.5 101C97.9718 101 100 102.409 100 104.126V108"/>
</mask>
<path d="M94 108V104.126H88V108H94ZM94 104.126C94 104.536 93.7588 104.574 94.0345 104.383C94.2937 104.203 94.8061 104 95.5 104V98C93.7221 98 91.9845 98.5015 90.6116 99.4551C89.2553 100.397 88 101.999 88 104.126H94ZM95.5 104C96.1939 104 96.7063 104.203 96.9655 104.383C97.2412 104.575 97 104.536 97 104.126H103C103 101.999 101.745 100.397 100.388 99.4551C99.0155 98.5015 97.2779 98 95.5 98V104ZM97 104.126V108H103V104.126H97Z" fill="white" mask="url(#path-3-inside-2)"/>
<rect x="24.5" y="109.5" width="91" height="23" fill="white" stroke="white" stroke-width="3"/>
<path d="M82.5 84.5H70H57.5V59.5H70H82.5V84.5Z" stroke="white" stroke-width="3" stroke-miterlimit="10"/>
<path d="M70 58V86" stroke="white" stroke-width="3" stroke-miterlimit="10"/>
<mask id="path-8-inside-3" fill="white">
<path d="M16 37.3012L70.1987 6L124 38"/>
</mask>
<path d="M70.1987 6L71.7323 3.4216L70.2211 2.52274L68.6984 3.40212L70.1987 6ZM17.5003 39.899L71.6991 8.59788L68.6984 3.40212L14.4997 34.7033L17.5003 39.899ZM68.6651 8.5784L122.466 40.5784L125.534 35.4216L71.7323 3.4216L68.6651 8.5784Z" fill="white" mask="url(#path-8-inside-3)"/>
<path d="M70.396 18.7268L115.5 44.9631V109.5H24.5V44.3922L70.396 18.7268Z" stroke="white" stroke-width="3" stroke-miterlimit="10"/>
</svg>
