<svg width="140" height="140" viewBox="0 0 140 140" fill="none" xmlns="http://www.w3.org/2000/svg">
<path d="M26 130V76H13V130" stroke="white" stroke-width="3"/>
<path d="M26 10V46H13V10" stroke="white" stroke-width="3"/>
<path d="M127 10V46H114V10" stroke="white" stroke-width="3"/>
<path d="M127 130V76H114V130" stroke="white" stroke-width="3"/>
<rect x="13" y="60" width="114" height="16" stroke="white" stroke-width="3"/>
<rect x="70" y="46" width="57" height="14" stroke="white" stroke-width="3"/>
<ellipse cx="80.7581" cy="53" rx="3.3871" ry="3.5" stroke="white" stroke-width="3"/>
<ellipse cx="92.5322" cy="53" rx="3.3871" ry="3.5" stroke="white" stroke-width="3"/>
<ellipse cx="104.306" cy="53" rx="3.3871" ry="3.5" stroke="white" stroke-width="3"/>
<ellipse cx="116.081" cy="53" rx="3.3871" ry="3.5" stroke="white" stroke-width="3"/>
<rect x="13" y="46" width="57" height="14" stroke="white" stroke-width="3"/>
<ellipse cx="23.3871" cy="53" rx="3.3871" ry="3.5" stroke="white" stroke-width="3"/>
<ellipse cx="35.1613" cy="53" rx="3.3871" ry="3.5" stroke="white" stroke-width="3"/>
<ellipse cx="46.9354" cy="53" rx="3.3871" ry="3.5" stroke="white" stroke-width="3"/>
<ellipse cx="58.7096" cy="53" rx="3.3871" ry="3.5" stroke="white" stroke-width="3"/>
</svg>
