<svg width="140" height="140" viewBox="0 0 140 140" fill="none" xmlns="http://www.w3.org/2000/svg">
<path d="M108 122H32" stroke="white" stroke-width="3" stroke-miterlimit="10"/>
<mask id="path-2-inside-1" fill="white">
<path d="M14 110V6H126V110"/>
</mask>
<path d="M14 6V3H11V6H14ZM126 6H129V3H126V6ZM17 110V6H11V110H17ZM14 9H126V3H14V9ZM123 6V110H129V6H123Z" fill="white" mask="url(#path-2-inside-1)"/>
<mask id="path-4-inside-2" fill="white">
<path d="M34 134L31.29 110H20.423H17.0242H6.50151L4 134"/>
</mask>
<path d="M31.29 110L34.2711 109.663L33.9704 107H31.29V110ZM6.50151 110V107H3.79795L3.51767 109.689L6.50151 110ZM36.9811 133.663L34.2711 109.663L28.309 110.337L31.0189 134.337L36.9811 133.663ZM31.29 107H20.423V113H31.29V107ZM20.423 107H17.0242V113H20.423V107ZM17.0242 107H6.50151V113H17.0242V107ZM3.51767 109.689L1.01616 133.689L6.98384 134.311L9.48535 110.311L3.51767 109.689Z" fill="white" mask="url(#path-4-inside-2)"/>
<mask id="path-6-inside-3" fill="white">
<path d="M136 134L133.29 110H122.423H119.024H108.502L106 134"/>
</mask>
<path d="M133.29 110L136.271 109.663L135.97 107H133.29V110ZM108.502 110V107H105.798L105.518 109.689L108.502 110ZM138.981 133.663L136.271 109.663L130.309 110.337L133.019 134.337L138.981 133.663ZM133.29 107H122.423V113H133.29V107ZM122.423 107H119.024V113H122.423V107ZM119.024 107H108.502V113H119.024V107ZM105.518 109.689L103.016 133.689L108.984 134.311L111.485 110.311L105.518 109.689Z" fill="white" mask="url(#path-6-inside-3)"/>
<path d="M115 20H25V100H115V20Z" stroke="white" stroke-width="3" stroke-miterlimit="10"/>
<path d="M24 83H114" stroke="white" stroke-width="3" stroke-miterlimit="10"/>
<mask id="path-10-inside-4" fill="white">
<path d="M42.7693 28.5354V25.8081H40.0001V28.5354H42.7693Z"/>
</mask>
<path d="M42.7693 28.5354V25.8081H40.0001V28.5354H42.7693Z" fill="#FBB03B"/>
<path d="M42.7693 25.8081H45.7693V22.8081H42.7693V25.8081ZM42.7693 28.5354V31.5354H45.7693V28.5354H42.7693ZM40.0001 28.5354H37.0001V31.5354H40.0001V28.5354ZM40.0001 25.8081V22.8081H37.0001V25.8081H40.0001ZM39.7693 25.8081V28.5354H45.7693V25.8081H39.7693ZM42.7693 25.5354H40.0001V31.5354H42.7693V25.5354ZM43.0001 28.5354V25.8081H37.0001V28.5354H43.0001ZM40.0001 28.8081H42.7693V22.8081H40.0001V28.8081Z" fill="white" mask="url(#path-10-inside-4)"/>
<mask id="path-12-inside-5" fill="white">
<path d="M62.1538 28.5354V25.8081H59.3846V28.5354H62.1538Z"/>
</mask>
<path d="M62.1538 28.5354V25.8081H59.3846V28.5354H62.1538Z" fill="#FBB03B"/>
<path d="M62.1538 25.8081H65.1538V22.8081H62.1538V25.8081ZM62.1538 28.5354V31.5354H65.1538V28.5354H62.1538ZM59.3846 28.5354H56.3846V31.5354H59.3846V28.5354ZM59.3846 25.8081V22.8081H56.3846V25.8081H59.3846ZM59.1538 25.8081V28.5354H65.1538V25.8081H59.1538ZM62.1538 25.5354H59.3846V31.5354H62.1538V25.5354ZM62.3846 28.5354V25.8081H56.3846V28.5354H62.3846ZM59.3846 28.8081H62.1538V22.8081H59.3846V28.8081Z" fill="white" mask="url(#path-12-inside-5)"/>
<mask id="path-14-inside-6" fill="white">
<path d="M80.6154 28.5354V25.8081H77.8461V28.5354H80.6154Z"/>
</mask>
<path d="M80.6154 28.5354V25.8081H77.8461V28.5354H80.6154Z" fill="#FBB03B"/>
<path d="M80.6154 25.8081H83.6154V22.8081H80.6154V25.8081ZM80.6154 28.5354V31.5354H83.6154V28.5354H80.6154ZM77.8461 28.5354H74.8461V31.5354H77.8461V28.5354ZM77.8461 25.8081V22.8081H74.8461V25.8081H77.8461ZM77.6154 25.8081V28.5354H83.6154V25.8081H77.6154ZM80.6154 25.5354H77.8461V31.5354H80.6154V25.5354ZM80.8461 28.5354V25.8081H74.8461V28.5354H80.8461ZM77.8461 28.8081H80.6154V22.8081H77.8461V28.8081Z" fill="white" mask="url(#path-14-inside-6)"/>
<mask id="path-16-inside-7" fill="white">
<path d="M100 28.5354V25.8081H97.2308V28.5354H100Z"/>
</mask>
<path d="M100 28.5354V25.8081H97.2308V28.5354H100Z" fill="#FBB03B"/>
<path d="M100 25.8081H103V22.8081H100V25.8081ZM100 28.5354V31.5354H103V28.5354H100ZM97.2308 28.5354H94.2308V31.5354H97.2308V28.5354ZM97.2308 25.8081V22.8081H94.2308V25.8081H97.2308ZM97 25.8081V28.5354H103V25.8081H97ZM100 25.5354H97.2308V31.5354H100V25.5354ZM100.231 28.5354V25.8081H94.2308V28.5354H100.231ZM97.2308 28.8081H100V22.8081H97.2308V28.8081Z" fill="white" mask="url(#path-16-inside-7)"/>
<mask id="path-18-inside-8" fill="white">
<path d="M42.7693 40.3535V37.6262H40.0001V40.3535H42.7693Z"/>
</mask>
<path d="M42.7693 40.3535V37.6262H40.0001V40.3535H42.7693Z" fill="#FBB03B"/>
<path d="M42.7693 37.6262H45.7693V34.6262H42.7693V37.6262ZM42.7693 40.3535V43.3535H45.7693V40.3535H42.7693ZM40.0001 40.3535H37.0001V43.3535H40.0001V40.3535ZM40.0001 37.6262V34.6262H37.0001V37.6262H40.0001ZM39.7693 37.6262V40.3535H45.7693V37.6262H39.7693ZM42.7693 37.3535H40.0001V43.3535H42.7693V37.3535ZM43.0001 40.3535V37.6262H37.0001V40.3535H43.0001ZM40.0001 40.6262H42.7693V34.6262H40.0001V40.6262Z" fill="white" mask="url(#path-18-inside-8)"/>
<mask id="path-20-inside-9" fill="white">
<path d="M62.1538 40.3535V37.6262H59.3846V40.3535H62.1538Z"/>
</mask>
<path d="M62.1538 40.3535V37.6262H59.3846V40.3535H62.1538Z" fill="#FBB03B"/>
<path d="M62.1538 37.6262H65.1538V34.6262H62.1538V37.6262ZM62.1538 40.3535V43.3535H65.1538V40.3535H62.1538ZM59.3846 40.3535H56.3846V43.3535H59.3846V40.3535ZM59.3846 37.6262V34.6262H56.3846V37.6262H59.3846ZM59.1538 37.6262V40.3535H65.1538V37.6262H59.1538ZM62.1538 37.3535H59.3846V43.3535H62.1538V37.3535ZM62.3846 40.3535V37.6262H56.3846V40.3535H62.3846ZM59.3846 40.6262H62.1538V34.6262H59.3846V40.6262Z" fill="white" mask="url(#path-20-inside-9)"/>
<mask id="path-22-inside-10" fill="white">
<path d="M80.6154 40.3535V37.6262H77.8461V40.3535H80.6154Z"/>
</mask>
<path d="M80.6154 40.3535V37.6262H77.8461V40.3535H80.6154Z" fill="#FBB03B"/>
<path d="M80.6154 37.6262H83.6154V34.6262H80.6154V37.6262ZM80.6154 40.3535V43.3535H83.6154V40.3535H80.6154ZM77.8461 40.3535H74.8461V43.3535H77.8461V40.3535ZM77.8461 37.6262V34.6262H74.8461V37.6262H77.8461ZM77.6154 37.6262V40.3535H83.6154V37.6262H77.6154ZM80.6154 37.3535H77.8461V43.3535H80.6154V37.3535ZM80.8461 40.3535V37.6262H74.8461V40.3535H80.8461ZM77.8461 40.6262H80.6154V34.6262H77.8461V40.6262Z" fill="white" mask="url(#path-22-inside-10)"/>
<mask id="path-24-inside-11" fill="white">
<path d="M100 40.3535V37.6262H97.2308V40.3535H100Z"/>
</mask>
<path d="M100 40.3535V37.6262H97.2308V40.3535H100Z" fill="#FBB03B"/>
<path d="M100 37.6262H103V34.6262H100V37.6262ZM100 40.3535V43.3535H103V40.3535H100ZM97.2308 40.3535H94.2308V43.3535H97.2308V40.3535ZM97.2308 37.6262V34.6262H94.2308V37.6262H97.2308ZM97 37.6262V40.3535H103V37.6262H97ZM100 37.3535H97.2308V43.3535H100V37.3535ZM100.231 40.3535V37.6262H94.2308V40.3535H100.231ZM97.2308 40.6262H100V34.6262H97.2308V40.6262Z" fill="white" mask="url(#path-24-inside-11)"/>
<mask id="path-26-inside-12" fill="white">
<path d="M42.7693 52.1719V49.4446H40.0001V52.1719H42.7693Z"/>
</mask>
<path d="M42.7693 52.1719V49.4446H40.0001V52.1719H42.7693Z" fill="#FBB03B"/>
<path d="M42.7693 49.4446H45.7693V46.4446H42.7693V49.4446ZM42.7693 52.1719V55.1719H45.7693V52.1719H42.7693ZM40.0001 52.1719H37.0001V55.1719H40.0001V52.1719ZM40.0001 49.4446V46.4446H37.0001V49.4446H40.0001ZM39.7693 49.4446V52.1719H45.7693V49.4446H39.7693ZM42.7693 49.1719H40.0001V55.1719H42.7693V49.1719ZM43.0001 52.1719V49.4446H37.0001V52.1719H43.0001ZM40.0001 52.4446H42.7693V46.4446H40.0001V52.4446Z" fill="white" mask="url(#path-26-inside-12)"/>
<mask id="path-28-inside-13" fill="white">
<path d="M62.1538 52.1719V49.4446H59.3846V52.1719H62.1538Z"/>
</mask>
<path d="M62.1538 52.1719V49.4446H59.3846V52.1719H62.1538Z" fill="#FBB03B"/>
<path d="M62.1538 49.4446H65.1538V46.4446H62.1538V49.4446ZM62.1538 52.1719V55.1719H65.1538V52.1719H62.1538ZM59.3846 52.1719H56.3846V55.1719H59.3846V52.1719ZM59.3846 49.4446V46.4446H56.3846V49.4446H59.3846ZM59.1538 49.4446V52.1719H65.1538V49.4446H59.1538ZM62.1538 49.1719H59.3846V55.1719H62.1538V49.1719ZM62.3846 52.1719V49.4446H56.3846V52.1719H62.3846ZM59.3846 52.4446H62.1538V46.4446H59.3846V52.4446Z" fill="white" mask="url(#path-28-inside-13)"/>
<mask id="path-30-inside-14" fill="white">
<path d="M80.6154 52.1719V49.4446H77.8461V52.1719H80.6154Z"/>
</mask>
<path d="M80.6154 52.1719V49.4446H77.8461V52.1719H80.6154Z" fill="#FBB03B"/>
<path d="M80.6154 49.4446H83.6154V46.4446H80.6154V49.4446ZM80.6154 52.1719V55.1719H83.6154V52.1719H80.6154ZM77.8461 52.1719H74.8461V55.1719H77.8461V52.1719ZM77.8461 49.4446V46.4446H74.8461V49.4446H77.8461ZM77.6154 49.4446V52.1719H83.6154V49.4446H77.6154ZM80.6154 49.1719H77.8461V55.1719H80.6154V49.1719ZM80.8461 52.1719V49.4446H74.8461V52.1719H80.8461ZM77.8461 52.4446H80.6154V46.4446H77.8461V52.4446Z" fill="white" mask="url(#path-30-inside-14)"/>
<mask id="path-32-inside-15" fill="white">
<path d="M100 52.1719V49.4446H97.2308V52.1719H100Z"/>
</mask>
<path d="M100 52.1719V49.4446H97.2308V52.1719H100Z" fill="#FBB03B"/>
<path d="M100 49.4446H103V46.4446H100V49.4446ZM100 52.1719V55.1719H103V52.1719H100ZM97.2308 52.1719H94.2308V55.1719H97.2308V52.1719ZM97.2308 49.4446V46.4446H94.2308V49.4446H97.2308ZM97 49.4446V52.1719H103V49.4446H97ZM100 49.1719H97.2308V55.1719H100V49.1719ZM100.231 52.1719V49.4446H94.2308V52.1719H100.231ZM97.2308 52.4446H100V46.4446H97.2308V52.4446Z" fill="white" mask="url(#path-32-inside-15)"/>
<mask id="path-34-inside-16" fill="white">
<path d="M42.7693 63.99V61.2627H40.0001V63.99H42.7693Z"/>
</mask>
<path d="M42.7693 63.99V61.2627H40.0001V63.99H42.7693Z" fill="#FBB03B"/>
<path d="M42.7693 61.2627H45.7693V58.2627H42.7693V61.2627ZM42.7693 63.99V66.99H45.7693V63.99H42.7693ZM40.0001 63.99H37.0001V66.99H40.0001V63.99ZM40.0001 61.2627V58.2627H37.0001V61.2627H40.0001ZM39.7693 61.2627V63.99H45.7693V61.2627H39.7693ZM42.7693 60.99H40.0001V66.99H42.7693V60.99ZM43.0001 63.99V61.2627H37.0001V63.99H43.0001ZM40.0001 64.2627H42.7693V58.2627H40.0001V64.2627Z" fill="white" mask="url(#path-34-inside-16)"/>
<mask id="path-36-inside-17" fill="white">
<path d="M62.1538 63.99V61.2627H59.3846V63.99H62.1538Z"/>
</mask>
<path d="M62.1538 63.99V61.2627H59.3846V63.99H62.1538Z" fill="#FBB03B"/>
<path d="M62.1538 61.2627H65.1538V58.2627H62.1538V61.2627ZM62.1538 63.99V66.99H65.1538V63.99H62.1538ZM59.3846 63.99H56.3846V66.99H59.3846V63.99ZM59.3846 61.2627V58.2627H56.3846V61.2627H59.3846ZM59.1538 61.2627V63.99H65.1538V61.2627H59.1538ZM62.1538 60.99H59.3846V66.99H62.1538V60.99ZM62.3846 63.99V61.2627H56.3846V63.99H62.3846ZM59.3846 64.2627H62.1538V58.2627H59.3846V64.2627Z" fill="white" mask="url(#path-36-inside-17)"/>
<mask id="path-38-inside-18" fill="white">
<path d="M80.6154 63.99V61.2627H77.8461V63.99H80.6154Z"/>
</mask>
<path d="M80.6154 63.99V61.2627H77.8461V63.99H80.6154Z" fill="#FBB03B"/>
<path d="M80.6154 61.2627H83.6154V58.2627H80.6154V61.2627ZM80.6154 63.99V66.99H83.6154V63.99H80.6154ZM77.8461 63.99H74.8461V66.99H77.8461V63.99ZM77.8461 61.2627V58.2627H74.8461V61.2627H77.8461ZM77.6154 61.2627V63.99H83.6154V61.2627H77.6154ZM80.6154 60.99H77.8461V66.99H80.6154V60.99ZM80.8461 63.99V61.2627H74.8461V63.99H80.8461ZM77.8461 64.2627H80.6154V58.2627H77.8461V64.2627Z" fill="white" mask="url(#path-38-inside-18)"/>
<mask id="path-40-inside-19" fill="white">
<path d="M100 63.99V61.2627H97.2308V63.99H100Z"/>
</mask>
<path d="M100 63.99V61.2627H97.2308V63.99H100Z" fill="#FBB03B"/>
<path d="M100 61.2627H103V58.2627H100V61.2627ZM100 63.99V66.99H103V63.99H100ZM97.2308 63.99H94.2308V66.99H97.2308V63.99ZM97.2308 61.2627V58.2627H94.2308V61.2627H97.2308ZM97 61.2627V63.99H103V61.2627H97ZM100 60.99H97.2308V66.99H100V60.99ZM100.231 63.99V61.2627H94.2308V63.99H100.231ZM97.2308 64.2627H100V58.2627H97.2308V64.2627Z" fill="white" mask="url(#path-40-inside-19)"/>
<mask id="path-42-inside-20" fill="white">
<path d="M80.6154 75.8081V73.0808H77.8461V75.8081H80.6154Z"/>
</mask>
<path d="M80.6154 75.8081V73.0808H77.8461V75.8081H80.6154Z" fill="#FBB03B"/>
<path d="M80.6154 73.0808H83.6154V70.0808H80.6154V73.0808ZM80.6154 75.8081V78.8081H83.6154V75.8081H80.6154ZM77.8461 75.8081H74.8461V78.8081H77.8461V75.8081ZM77.8461 73.0808V70.0808H74.8461V73.0808H77.8461ZM77.6154 73.0808V75.8081H83.6154V73.0808H77.6154ZM80.6154 72.8081H77.8461V78.8081H80.6154V72.8081ZM80.8461 75.8081V73.0808H74.8461V75.8081H80.8461ZM77.8461 76.0808H80.6154V70.0808H77.8461V76.0808Z" fill="white" mask="url(#path-42-inside-20)"/>
<mask id="path-44-inside-21" fill="white">
<path d="M42.7693 75.8081V73.0808H40.0001V75.8081H42.7693Z"/>
</mask>
<path d="M42.7693 75.8081V73.0808H40.0001V75.8081H42.7693Z" fill="#FBB03B"/>
<path d="M42.7693 73.0808H45.7693V70.0808H42.7693V73.0808ZM42.7693 75.8081V78.8081H45.7693V75.8081H42.7693ZM40.0001 75.8081H37.0001V78.8081H40.0001V75.8081ZM40.0001 73.0808V70.0808H37.0001V73.0808H40.0001ZM39.7693 73.0808V75.8081H45.7693V73.0808H39.7693ZM42.7693 72.8081H40.0001V78.8081H42.7693V72.8081ZM43.0001 75.8081V73.0808H37.0001V75.8081H43.0001ZM40.0001 76.0808H42.7693V70.0808H40.0001V76.0808Z" fill="white" mask="url(#path-44-inside-21)"/>
<mask id="path-46-inside-22" fill="white">
<path d="M62.1538 75.8081V73.0808H59.3846V75.8081H62.1538Z"/>
</mask>
<path d="M62.1538 75.8081V73.0808H59.3846V75.8081H62.1538Z" fill="#FBB03B"/>
<path d="M62.1538 73.0808H65.1538V70.0808H62.1538V73.0808ZM62.1538 75.8081V78.8081H65.1538V75.8081H62.1538ZM59.3846 75.8081H56.3846V78.8081H59.3846V75.8081ZM59.3846 73.0808V70.0808H56.3846V73.0808H59.3846ZM59.1538 73.0808V75.8081H65.1538V73.0808H59.1538ZM62.1538 72.8081H59.3846V78.8081H62.1538V72.8081ZM62.3846 75.8081V73.0808H56.3846V75.8081H62.3846ZM59.3846 76.0808H62.1538V70.0808H59.3846V76.0808Z" fill="white" mask="url(#path-46-inside-22)"/>
<mask id="path-48-inside-23" fill="white">
<path d="M100 75.8081V73.0808H97.2308V75.8081H100Z"/>
</mask>
<path d="M100 75.8081V73.0808H97.2308V75.8081H100Z" fill="#FBB03B"/>
<path d="M100 73.0808H103V70.0808H100V73.0808ZM100 75.8081V78.8081H103V75.8081H100ZM97.2308 75.8081H94.2308V78.8081H97.2308V75.8081ZM97.2308 73.0808V70.0808H94.2308V73.0808H97.2308ZM97 73.0808V75.8081H103V73.0808H97ZM100 72.8081H97.2308V78.8081H100V72.8081ZM100.231 75.8081V73.0808H94.2308V75.8081H100.231ZM97.2308 76.0808H100V70.0808H97.2308V76.0808Z" fill="white" mask="url(#path-48-inside-23)"/>
<path d="M29.9954 110.932L29.9364 110.5H29.5H16.5V8.5H123.5V110.5H110.5H110.064L110.005 110.932L108.564 121.5H31.4364L29.9954 110.932ZM116 20V19.5H115.5H24.5H24V20V99.5897V100.09H24.5H115.5H116V99.5897V20Z" fill="white" stroke="white"/>
</svg>
