<svg width="140" height="140" viewBox="0 0 140 140" fill="none" xmlns="http://www.w3.org/2000/svg">
<circle cx="33" cy="91" r="13.5" stroke="white" stroke-width="3"/>
<circle cx="108" cy="91" r="13.5" stroke="white" stroke-width="3"/>
<path d="M129.5 65.3772V89.5H126.298C126.222 89.0754 126.12 88.5661 125.982 87.9934C125.579 86.3138 124.867 84.0562 123.63 81.7831C121.132 77.1918 116.444 72.5 108 72.5C99.5564 72.5 94.8681 77.1918 92.3699 81.7831C91.1331 84.0562 90.4215 86.3138 90.018 87.9934C89.8805 88.5661 89.7779 89.0754 89.7021 89.5H51.2979C51.2221 89.0754 51.1195 88.5661 50.982 87.9934C50.5785 86.3138 49.8669 84.0562 48.6301 81.7831C46.1319 77.1918 41.4436 72.5 33 72.5C24.5564 72.5 19.8681 77.1918 17.3699 81.7831C16.1331 84.0562 15.4215 86.3138 15.018 87.9934C14.8805 88.5661 14.7779 89.0754 14.7021 89.5H11V65H79.5H81V63.5V26.5H108.631L129.5 65.3772Z" stroke="white" stroke-width="3"/>
<rect x="11" y="16" width="70" height="49" stroke="white" stroke-width="3"/>
<rect x="10.5" y="107.5" width="119" height="15" stroke="white" stroke-width="3"/>
</svg>
