<svg width="140" height="140" viewBox="0 0 140 140" fill="none" xmlns="http://www.w3.org/2000/svg">
<path d="M45.3866 21.5507L45.3862 21.5506L45.3859 21.5505L45.3859 21.5505L43.5 21.048V23V133.5H37.5V10.9375C37.8647 11.0285 38.2775 11.1299 38.7342 11.2397C40.7023 11.7128 43.4903 12.343 46.7771 12.9732C53.3368 14.2308 61.9425 15.5 70 15.5C78.0575 15.5 86.6632 14.2308 93.2229 12.9732C96.5097 12.343 99.2977 11.7128 101.266 11.2397C101.723 11.1299 102.135 11.0285 102.5 10.9375V133.5H96.5V23V21.048L94.6141 21.5505L94.6141 21.5505L94.6138 21.5506L94.6134 21.5507L94.609 21.5518L94.588 21.5573L94.4981 21.5806C94.4172 21.6013 94.2945 21.6323 94.1323 21.672C93.8079 21.7515 93.3254 21.8662 92.7019 22.0042C91.4546 22.2804 89.6445 22.6501 87.4081 23.0201C82.9316 23.7609 76.7666 24.5 70 24.5C63.2334 24.5 57.0684 23.7609 52.5919 23.0201C50.3555 22.6501 48.5454 22.2804 47.2981 22.0042C46.6746 21.8662 46.1921 21.7515 45.8677 21.672C45.7055 21.6323 45.5828 21.6013 45.5019 21.5806L45.412 21.5573L45.391 21.5518L45.3866 21.5507Z" stroke="white" stroke-width="3" stroke-miterlimit="10"/>
<path d="M75.9999 4V122.001" stroke="white" stroke-width="3" stroke-miterlimit="10"/>
<path d="M64 122.001V4" stroke="white" stroke-width="3" stroke-miterlimit="10"/>
<path d="M64 29.1787H76" stroke="white" stroke-width="3" stroke-miterlimit="10"/>
<path d="M64 36.9829H76" stroke="white" stroke-width="3" stroke-miterlimit="10"/>
<path d="M64 44.7874H76" stroke="white" stroke-width="3" stroke-miterlimit="10"/>
<path d="M64 52.5918H76" stroke="white" stroke-width="3" stroke-miterlimit="10"/>
<path d="M64 60.396H76" stroke="white" stroke-width="3" stroke-miterlimit="10"/>
<path d="M64 68.2004H76" stroke="white" stroke-width="3" stroke-miterlimit="10"/>
<path d="M64 75.0291H76" stroke="white" stroke-width="3" stroke-miterlimit="10"/>
<path d="M64 82.8335H76" stroke="white" stroke-width="3" stroke-miterlimit="10"/>
<path d="M64 90.6377H76" stroke="white" stroke-width="3" stroke-miterlimit="10"/>
<path d="M64 98.4421H76" stroke="white" stroke-width="3" stroke-miterlimit="10"/>
<path d="M64 106.246H76" stroke="white" stroke-width="3" stroke-miterlimit="10"/>
<path d="M64 114.051H76" stroke="white" stroke-width="3" stroke-miterlimit="10"/>
<path d="M38 90L8 90" stroke="white" stroke-width="3" stroke-miterlimit="10"/>
<path d="M8 120H38" stroke="white" stroke-width="3" stroke-miterlimit="10"/>
<path d="M24 16H38" stroke="white" stroke-width="3" stroke-miterlimit="10"/>
<path d="M102 90H132" stroke="white" stroke-width="3" stroke-miterlimit="10"/>
<path d="M132 120H102" stroke="white" stroke-width="3" stroke-miterlimit="10"/>
<path d="M116 16H102" stroke="white" stroke-width="3" stroke-miterlimit="10"/>
<path d="M55 90H44V120H55" stroke="white" stroke-width="3"/>
<ellipse cx="55" cy="105" rx="4" ry="15" stroke="white" stroke-width="3"/>
<path d="M85 90H96V120H85" stroke="white" stroke-width="3"/>
<ellipse rx="4" ry="15" transform="matrix(-1 0 0 1 85 105)" stroke="white" stroke-width="3"/>
<line x1="40" y1="133.5" x2="100" y2="133.5" stroke="white" stroke-width="3"/>
</svg>
