<svg width="32" height="29" viewBox="0 0 32 29" fill="none" xmlns="http://www.w3.org/2000/svg"><path d="M4.5 5.5v-4A.5.5 0 004 1H1.5a.5.5 0 100 1h2v21a.5.5 0 00.5.5h3.516a2.491 2.491 0 00-1.016 2C6.5 26.878 7.622 28 9 28c1.379 0 2.5-1.122 2.5-2.5 0-.82-.403-1.544-1.015-2h10.53a2.491 2.491 0 00-1.015 2c0 1.378 1.122 2.5 2.5 2.5s2.5-1.122 2.5-2.5c0-.82-.403-1.544-1.015-2H27a.5.5 0 100-1H4.5v-4H31v-13H4.5zM9 27c-.827 0-1.5-.673-1.5-1.5S8.173 24 9 24s1.5.673 1.5 1.5S9.827 27 9 27zm13.5 0c-.827 0-1.5-.673-1.5-1.5s.673-1.5 1.5-1.5 1.5.673 1.5 1.5-.673 1.5-1.5 1.5zm-18-16.5H30v3H4.5v-3zm25.5-1H4.5v-3H30v3zm-25.5 8v-3H30v3H4.5z" fill="#fff" stroke="#FBB03B" stroke-width="2"/></svg>