<svg width="62" height="56" viewBox="0 0 62 56" fill="none" xmlns="http://www.w3.org/2000/svg"><path d="M8 10V2a1 1 0 00-1-1H2a1 1 0 100 2h4v42a1 1 0 001 1h7.031C12.806 46.912 12 48.359 12 50c0 2.757 2.243 5 5 5s5-2.243 5-5c0-1.641-.806-3.088-2.031-4h21.062C39.806 46.912 39 48.359 39 50c0 2.757 2.243 5 5 5s5-2.243 5-5c0-1.641-.806-3.088-2.031-4H53a1 1 0 100-2H8v-8h53V10H8zm9 43c-1.654 0-3-1.346-3-3s1.346-3 3-3 3 1.346 3 3-1.346 3-3 3zm27 0c-1.654 0-3-1.346-3-3s1.346-3 3-3 3 1.346 3 3-1.346 3-3 3zM8 20h51v6H8v-6zm51-2H8v-6h51v6zM8 34v-6h51v6H8z" fill="#fff" stroke="#fff" stroke-width="2"/></svg>