<svg width="38" height="34" viewBox="0 0 38 34" fill="none" xmlns="http://www.w3.org/2000/svg"><path d="M5.857 6.571V2a.571.571 0 00-.571-.572H2.429a.571.571 0 100 1.143h2.285v24c0 .316.256.572.572.572h4.017a2.847 2.847 0 00-1.16 2.285A2.86 2.86 0 0011 32.286a2.86 2.86 0 002.857-2.858c0-.937-.46-1.764-1.16-2.285h12.035a2.847 2.847 0 00-1.16 2.285 2.86 2.86 0 002.857 2.858 2.86 2.86 0 002.857-2.858c0-.937-.46-1.764-1.16-2.285h3.445a.571.571 0 100-1.143H5.858v-4.572h30.286V6.572H5.857zM11 31.143c-.945 0-1.714-.77-1.714-1.715 0-.945.769-1.714 1.714-1.714s1.714.77 1.714 1.715c0 .945-.769 1.714-1.714 1.714zm15.429 0c-.945 0-1.715-.77-1.715-1.715 0-.945.77-1.714 1.715-1.714.945 0 1.714.77 1.714 1.715 0 .945-.77 1.714-1.714 1.714zM5.857 12.286H35v3.428H5.857v-3.428zM35 11.143H5.857V7.714H35v3.429zM5.857 20.286v-3.429H35v3.429H5.857z" stroke="#FBB03B" stroke-width="2"/></svg>