<svg width="30" height="40" viewBox="0 0 30 40" fill="none" xmlns="http://www.w3.org/2000/svg"><path d="M2.492 39.111c0 .491.409.889.913.889h23.19a.901.901 0 00.914-.889V10.327H2.492V39.11zm17.647-23.885h3.426v19.368H20.14V15.225zm-6.852 0h3.426v19.368h-3.426V15.225zm-6.852 0h3.426v19.368H6.435V15.225zM22.7 4.083V.888A.901.901 0 0021.787 0H8.213A.901.901 0 007.3.888v4.305H.914A.901.901 0 000 6.082v2.246c0 .49.409.889.914.889h28.172A.901.901 0 0030 8.328V6.082a.901.901 0 00-.914-.889H22.7v-1.11zm-3.426.928h-8.548V3.33h8.548v1.68z" fill="#fff"/></svg>