<svg width="32" height="38" viewBox="0 0 32 38" fill="none" xmlns="http://www.w3.org/2000/svg"><path d="M31.576 9.863l-8.5-9.296C22.74.163 22.325 0 21.828 0H1.667C.752 0 0 .73 0 1.617v34.766C0 37.27.753 38 1.666 38h28.668c.913 0 1.586-.73 1.666-1.539v-25.54c-.008-.405-.168-.731-.424-1.058zm-8.163-4.142l3.26 3.583h-3.26V5.72zm5.247 29.131H3.332V3.156h16.83v7.679c0 .886.752 1.617 1.665 1.617h6.833v22.4z" fill="#fff"/><path d="M7.33 18.273c0 .886.753 1.617 1.666 1.617h14.002c.913 0 1.666-.73 1.666-1.617 0-.886-.753-1.616-1.666-1.616H8.996c-.913 0-1.666.73-1.666 1.616zm15.668 8.41H8.996c-.913 0-1.666.73-1.666 1.617 0 .886.753 1.616 1.666 1.616h14.002c.913 0 1.666-.73 1.666-1.616 0-.886-.753-1.617-1.666-1.617z" fill="#fff"/></svg>