<svg xmlns="http://www.w3.org/2000/svg" width="138" height="129" viewBox="0 0 138 129"><defs><clipPath id="a"><path fill="#fff" d="M13 107V3h112v104"/></clipPath><clipPath id="b"><path fill="#fff" d="M33 131l-2.71-24H5.502L3 131"/></clipPath><clipPath id="c"><path fill="#fff" d="M135 131l-2.71-24h-24.788L105 131"/></clipPath></defs><path fill="none" stroke="#fbb03b" stroke-miterlimit="20" stroke-width="6" d="M13 107v0V3v0h112v104" clip-path="url(&quot;#a&quot;)"/><path fill="none" stroke="#fbb03b" stroke-miterlimit="20" stroke-width="6" d="M33 131v0l-2.71-24v0H19.423v0h-3.399v0H5.502v0L3 131v0" clip-path="url(&quot;#b&quot;)"/><path fill="none" stroke="#fbb03b" stroke-miterlimit="20" stroke-width="6" d="M135 131v0l-2.71-24v0h-10.867v0h-3.399v0h-10.522v0L105 131v0" clip-path="url(&quot;#c&quot;)"/><path fill="#fbb03b" d="M41.21 25.747V23.02h-2.77v2.727zm20-.61V22.41h-2.77v2.727zm18 .46V22.87h-2.77v2.727zm19 .38V23.25h-2.77v2.727zm-56.32 11.27V34.52h-2.77v2.727zm19.5-.11V34.41h-2.77v2.727zm18 .46V34.87h-2.77v2.727zm19.5-.12V34.75h-2.77v2.727zm-56.31 11.27V46.02h-2.77v2.727zm19 .39V46.41h-2.77v2.727zm18 .46V46.87h-2.77v2.727zm20-.62V46.25h-2.77v2.727zm-57.82 11.77V58.02h-2.77v2.727zm19-.61V57.41h-2.77v2.727zm19 1.46V58.87h-2.77v2.727zm19-.62V58.25h-2.77v2.727zm-18.82 12.62V70.87h-2.77v2.727zm-38-.85V70.02h-2.77v2.727zm19-.61V69.41h-2.77v2.727zm38 .84V70.25h-2.77v2.727z"/><path fill="#fbb03b" d="M123 108h-13.5l-1.5 11H30l-1.5-11H15V5h108zm-8.5-91h-91v79.59h91z"/></svg>