<svg xmlns="http://www.w3.org/2000/svg" width="127" height="129" viewBox="0 0 127 129"><defs><clipPath id="a"><path fill="#fff" d="M39.19 19h12v-8h-12z"/></clipPath><clipPath id="b"><path fill="#fff" d="M77.19 19h12v-8h-12z"/></clipPath><clipPath id="c"><path fill="#fff" d="M26.19 69h12v-8h-12z"/></clipPath><clipPath id="d"><path fill="#fff" d="M11.19 69h12v-8h-12z"/></clipPath><clipPath id="e"><path fill="#fff" d="M106.19 69h12v-8h-12z"/></clipPath><clipPath id="f"><path fill="#fff" d="M91.19 69h12v-8h-12z"/></clipPath><clipPath id="g"><path fill="#fff" d="M51 75h26v54H51z"/></clipPath></defs><path fill="none" stroke="#fbb03b" stroke-miterlimit="20" stroke-width="6" d="M39.19 19v0h12v0-8 0h-12v0z" clip-path="url(&quot;#a&quot;)"/><path fill="none" stroke="#fbb03b" stroke-miterlimit="20" stroke-width="6" d="M77.19 19v0h12v0-8 0h-12v0z" clip-path="url(&quot;#b&quot;)"/><path fill="none" stroke="#fbb03b" stroke-miterlimit="20" stroke-width="6" d="M26.19 69v0h12v0-8 0h-12v0z" clip-path="url(&quot;#c&quot;)"/><path fill="none" stroke="#fbb03b" stroke-miterlimit="20" stroke-width="6" d="M11.19 69v0h12v0-8 0h-12v0z" clip-path="url(&quot;#d&quot;)"/><path fill="none" stroke="#fbb03b" stroke-miterlimit="20" stroke-width="6" d="M106.19 69v0h12v0-8 0h-12v0z" clip-path="url(&quot;#e&quot;)"/><path fill="none" stroke="#fbb03b" stroke-miterlimit="20" stroke-width="6" d="M91.19 69v0h12v0-8 0h-12v0z" clip-path="url(&quot;#f&quot;)"/><path fill="#fbb03b" d="M51.19 54h9v7h8v-7h9v20h-26z"/><path fill="none" stroke="#fbb03b" stroke-miterlimit="20" stroke-width="3" d="M51.19 54v0h9v7h8v0-7 0h9v20h-26v0z"/><path fill="#fbb03b" d="M51 75h26v54H51z"/><path fill="none" stroke="#fbb03b" stroke-miterlimit="20" stroke-width="6" d="M51 75v0h26v54H51v0z" clip-path="url(&quot;#g&quot;)"/></svg>