<svg xmlns="http://www.w3.org/2000/svg" width="139" height="72" viewBox="0 0 139 72"><defs><clipPath id="a"><path fill="#fff" d="M96 72V0H86l-6 50.857H10V72z"/></clipPath><clipPath id="b"><path fill="#fff" d="M93 0h33v72H93z"/></clipPath><clipPath id="c"><path fill="#fff" d="M17 0h49v19.5H19.5z"/></clipPath><clipPath id="d"><path fill="#fff" d="M22 19.5H9V0h10.4z"/></clipPath></defs><path fill="none" stroke="#fbb03b" stroke-miterlimit="20" stroke-width="6" d="M96 72v0V0v0H86v0l-6 50.857v0H26v0H10V72z" clip-path="url(&quot;#a&quot;)"/><path fill="none" stroke="#fbb03b" stroke-miterlimit="20" stroke-width="6" d="M93 0v0h33v72H93v0z" clip-path="url(&quot;#b&quot;)"/><path fill="none" stroke="#fbb03b" stroke-miterlimit="20" stroke-width="6" d="M17 0v0h49v19.5H19.5v0z" clip-path="url(&quot;#c&quot;)"/><path fill="none" stroke="#fbb03b" stroke-miterlimit="20" stroke-width="6" d="M22 19.5v0H9v0V0v0h10.4v0z" clip-path="url(&quot;#d&quot;)"/></svg>