<svg xmlns="http://www.w3.org/2000/svg" width="114" height="131" viewBox="0 0 114 131"><defs><clipPath id="a"><path fill="#fff" d="M22 127H6v4h16z"/></clipPath><clipPath id="b"><path fill="#fff" d="M2 32.28L57.202 0 112 33"/></clipPath><clipPath id="c"><path fill="#fff" d="M105 105H9v12h96z"/></clipPath><clipPath id="d"><path fill="#fff" d="M105 39.677V108H9V39.076L57.42 12z"/></clipPath><clipPath id="e"><path fill="#fff" d="M69 70H47v38h22z"/></clipPath><clipPath id="f"><path fill="#fff" d="M9 114h10v16H9z"/></clipPath><clipPath id="g"><path fill="#fff" d="M108 127H92v4h16z"/></clipPath><clipPath id="h"><path fill="#fff" d="M95 114h10v16H95z"/></clipPath></defs><path fill="none" stroke="#fbb03b" stroke-miterlimit="20" stroke-width="6" d="M22 127v0H6v4h16v0z" clip-path="url(&quot;#a&quot;)"/><path fill="none" stroke="#fbb03b" stroke-miterlimit="20" stroke-width="6" d="M2 32.28v0L57.202 0v0L112 33v0" clip-path="url(&quot;#b&quot;)"/><path fill="#fbb03b" d="M105 105H9v12h96z"/><path fill="none" stroke="#fbb03b" stroke-miterlimit="20" stroke-width="6" d="M105 105v0H9v12h96v0z" clip-path="url(&quot;#c&quot;)"/><path fill="none" stroke="#fbb03b" stroke-miterlimit="20" stroke-width="6" d="M105 39.677V108H9v0-68.924 0L57.42 12v0z" clip-path="url(&quot;#d&quot;)"/><path fill="none" stroke="#fbb03b" stroke-miterlimit="20" stroke-width="6" d="M69 70v0H47v38h22v0z" clip-path="url(&quot;#e&quot;)"/><path fill="#fbb03b" d="M63 90v-3h-3v3z"/><path fill="none" stroke="#fbb03b" stroke-miterlimit="20" stroke-width="6" d="M9 114v0h10v16H9v0z" clip-path="url(&quot;#f&quot;)"/><path fill="none" stroke="#fbb03b" stroke-miterlimit="20" stroke-width="6" d="M108 127v0H92v4h16v0z" clip-path="url(&quot;#g&quot;)"/><path fill="none" stroke="#fbb03b" stroke-miterlimit="20" stroke-width="6" d="M95 114v0h10v16H95v0z" clip-path="url(&quot;#h&quot;)"/></svg>