<svg xmlns="http://www.w3.org/2000/svg" width="128" height="117" viewBox="0 0 128 117"><defs><clipPath id="a"><path fill="#fff" d="M77.608 55.247V23H104v32.3zM24 112V23h47.835v89zm53.608 0V61.02H104V112z"/></clipPath><clipPath id="b"><path fill="#fff" d="M111 17H17v100h94z"/></clipPath><clipPath id="c"><path fill="#fff" d="M128 0H0v17h128z"/></clipPath><clipPath id="d"><path fill="#fff" d="M36 109V89h20v20"/></clipPath><clipPath id="e"><path fill="#fff" d="M34 74l7 5.043V92"/></clipPath><clipPath id="f"><path fill="#fff" d="M51 91l5.55-10L63 85.26"/></clipPath></defs><path fill="none" stroke="#fbb03b" stroke-miterlimit="20" stroke-width="6" d="M77.608 55.247V23H104v32.3zM24 112V23h47.835v89zm53.608 0V61.02H104V112z" clip-path="url(&quot;#a&quot;)"/><path fill="none" stroke="#fbb03b" stroke-miterlimit="20" stroke-width="6" d="M111 17v0H17v100h94v0z" clip-path="url(&quot;#b&quot;)"/><path fill="none" stroke="#fbb03b" stroke-miterlimit="20" stroke-width="6" d="M128 0v0H0v17h128v0z" clip-path="url(&quot;#c&quot;)"/><path fill="none" stroke="#fbb03b" stroke-miterlimit="20" stroke-width="6" d="M36 109v0-20 0h20v20" clip-path="url(&quot;#d&quot;)"/><path fill="none" stroke="#fbb03b" stroke-miterlimit="20" stroke-width="6" d="M34 74v0l7 5.043V92" clip-path="url(&quot;#e&quot;)"/><path fill="none" stroke="#fbb03b" stroke-miterlimit="20" stroke-width="6" d="M51 91v0l5.55-10v0L63 85.26v0" clip-path="url(&quot;#f&quot;)"/></svg>