<svg width="37" height="40" viewBox="0 0 37 40" fill="none" xmlns="http://www.w3.org/2000/svg"><path d="M34.01 14.308h-.976V9.673c0-.028-.005-.058-.008-.087a.763.763 0 00-.19-.508L24.998.268l-.006-.005a.79.79 0 00-.159-.131.843.843 0 00-.21-.096l-.042-.014A.812.812 0 0024.398 0H5.136c-.88 0-1.594.704-1.594 1.569v12.739h-.976c-1.258 0-2.278 1.003-2.278 2.241v11.66c0 1.237 1.02 2.241 2.278 2.241h.976v7.981c0 .865.715 1.569 1.594 1.569H31.44c.88 0 1.594-.704 1.594-1.569v-7.98h.977c1.257 0 2.278-1.005 2.278-2.242v-11.66c0-1.238-1.02-2.241-2.278-2.241zM5.136 1.568h18.465v8.026a.79.79 0 00.797.784h7.041v3.93H5.136V1.568zm17.887 24.165v2.275h-7.605v-11.98h2.764v9.705h4.841zm-19.58 2.274l3.522-6.06-3.396-5.92H6.73l1.066 2.187c.361.728.632 1.315.921 1.99h.036c.29-.764.524-1.297.831-1.99l1.03-2.186h3.143l-3.433 5.848 3.614 6.132h-3.18l-1.101-2.169c-.452-.835-.741-1.457-1.084-2.15h-.036c-.253.693-.56 1.316-.94 2.15l-1.011 2.169H3.443zm27.996 10H5.136V30.45H31.44v7.557zm-3.81-9.82c-1.39 0-2.764-.357-3.45-.73l.56-2.24c.74.373 1.878.747 3.053.747 1.265 0 1.932-.515 1.932-1.297 0-.747-.577-1.174-2.04-1.69-2.024-.693-3.343-1.794-3.343-3.537 0-2.044 1.735-3.608 4.608-3.608 1.372 0 2.384.285 3.106.604l-.614 2.187a5.86 5.86 0 00-2.547-.57c-1.192 0-1.77.534-1.77 1.156 0 .765.686 1.103 2.258 1.69 2.15.781 3.161 1.883 3.161 3.572 0 2.009-1.572 3.715-4.915 3.715z" fill="#fff"/></svg>