<svg xmlns="http://www.w3.org/2000/svg" width="26" height="26" viewBox="0 0 26 26"><defs><clipPath id="a"><path fill="#fff" d="M0 0h7.09v7.09H0z"/></clipPath><clipPath id="b"><path fill="#fff" d="M9.45 0h7.09v7.09H9.45z"/></clipPath><clipPath id="c"><path fill="#fff" d="M18.91 0H26v7.09h-7.09z"/></clipPath><clipPath id="d"><path fill="#fff" d="M0 9.45h7.09v7.09H0z"/></clipPath><clipPath id="e"><path fill="#fff" d="M9.45 9.45h7.09v7.09H9.45z"/></clipPath><clipPath id="f"><path fill="#fff" d="M18.91 9.45H26v7.09h-7.09z"/></clipPath><clipPath id="g"><path fill="#fff" d="M0 18.91h7.09V26H0z"/></clipPath><clipPath id="h"><path fill="#fff" d="M9.45 18.91h7.09V26H9.45z"/></clipPath><clipPath id="i"><path fill="#fff" d="M18.91 18.91H26V26h-7.09z"/></clipPath></defs><path fill="none" stroke="#4d4d4d" stroke-miterlimit="20" stroke-width="4" d="M0 0v0h7.09v7.09H0v0z" clip-path="url(&quot;#a&quot;)"/><path fill="none" stroke="#4d4d4d" stroke-miterlimit="20" stroke-width="4" d="M9.45 0v0h7.09v7.09H9.45v0z" clip-path="url(&quot;#b&quot;)"/><path fill="none" stroke="#4d4d4d" stroke-miterlimit="20" stroke-width="4" d="M18.91 0v0H26v7.09h-7.09v0z" clip-path="url(&quot;#c&quot;)"/><path fill="none" stroke="#4d4d4d" stroke-miterlimit="20" stroke-width="4" d="M0 9.45v0h7.09v7.09H0v0z" clip-path="url(&quot;#d&quot;)"/><path fill="none" stroke="#4d4d4d" stroke-miterlimit="20" stroke-width="4" d="M9.45 9.45v0h7.09v7.09H9.45v0z" clip-path="url(&quot;#e&quot;)"/><path fill="none" stroke="#4d4d4d" stroke-miterlimit="20" stroke-width="4" d="M18.91 9.45v0H26v7.09h-7.09v0z" clip-path="url(&quot;#f&quot;)"/><path fill="none" stroke="#4d4d4d" stroke-miterlimit="20" stroke-width="4" d="M0 18.91v0h7.09V26H0v0z" clip-path="url(&quot;#g&quot;)"/><path fill="none" stroke="#4d4d4d" stroke-miterlimit="20" stroke-width="4" d="M9.45 18.91v0h7.09V26H9.45v0z" clip-path="url(&quot;#h&quot;)"/><path fill="none" stroke="#4d4d4d" stroke-miterlimit="20" stroke-width="4" d="M18.91 18.91v0H26V26h-7.09v0z" clip-path="url(&quot;#i&quot;)"/></svg>