<svg width="15" height="22" viewBox="0 0 15 22" fill="none" xmlns="http://www.w3.org/2000/svg"><path stroke="#FBB03B" d="M1 1h14v13H1z"/><path fill="#FBB03B" d="M6 5h3v3H6zm2.515 8.539c-.01.63-.085 1.127-.222 1.492s-.416.77-.838 1.214l-1.077 1.072c-.46.503-.69 1.042-.69 1.62 0 .555.15.989.451 1.3.302.318.74.477 1.316.477.559 0 1.008-.143 1.348-.428.34-.286.51-.67.51-1.152h1.52c-.01.858-.326 1.548-.945 2.072-.625.53-1.436.794-2.433.794-1.036 0-1.842-.27-2.417-.81-.581-.534-.871-1.27-.871-2.206 0-.926.443-1.84 1.331-2.739l.896-.857c.4-.429.6-1.045.6-1.85h1.521z"/></svg>