<svg width="40" height="52" viewBox="0 0 40 52" fill="none" xmlns="http://www.w3.org/2000/svg"><path d="M9.523 2.561c-4.402 2.55-7.55 6.67-8.866 11.597a19.032 19.032 0 001.9 14.491c3.39 5.892 9.71 9.551 16.496 9.551 2.142 0 4.268-.37 6.283-1.08L33.896 52 40 48.463l-8.559-14.877a18.967 18.967 0 005.979-9.543 19.033 19.033 0 00-1.901-14.492C32.129 3.66 25.809 0 19.024 0c-3.324 0-6.609.886-9.5 2.561zm19.892 10.527a11.983 11.983 0 011.197 9.124 11.94 11.94 0 01-5.583 7.302 11.94 11.94 0 01-5.976 1.613 12.021 12.021 0 01-10.391-6.014 11.982 11.982 0 01-1.197-9.125 11.942 11.942 0 015.583-7.302 11.94 11.94 0 015.976-1.613 12.02 12.02 0 0110.39 6.015z" fill="#4D4D4D"/></svg>