<svg width="140" height="140" viewBox="0 0 140 140" fill="none" xmlns="http://www.w3.org/2000/svg"><path d="M45.387 21.55h0-.001 0l-1.886-.502V133.5h-6V10.937a178.965 178.965 0 009.277 2.036C53.337 14.231 61.943 15.5 70 15.5c8.058 0 16.663-1.27 23.223-2.527a179.045 179.045 0 009.277-2.036V133.5h-6V21.048l-1.886.503h0-.005l-.021.006-.09.024-.366.091c-.324.08-.807.194-1.43.332-1.247.276-3.058.646-5.294 1.016-4.476.74-10.641 1.48-17.408 1.48-6.767 0-12.932-.74-17.408-1.48-2.236-.37-4.047-.74-5.294-1.016a65.68 65.68 0 01-1.796-.423l-.09-.024-.021-.005-.004-.001z" fill="#fff" stroke="#fff" stroke-width="3" stroke-miterlimit="10"/><path d="M76 4v118.001m-12 0V4m0 25.179h12m-12 7.804h12m-12 7.804h12m-12 7.805h12m-12 7.804h12M64 68.2h12m-12 6.83h12m-12 7.804h12m-12 7.804h12m-12 7.804h12m-12 7.804h12m-12 7.805h12M38 90H8m0 30h30M24 16h14m64 74h30m0 30h-30m14-104h-14" stroke="#fff" stroke-width="3" stroke-miterlimit="10"/><path d="M55 90H44v30h11" stroke="#fff" stroke-width="3"/><ellipse cx="55" cy="105" rx="4" ry="15" stroke="#fff" stroke-width="3"/><path d="M85 90h11v30H85" stroke="#fff" stroke-width="3"/><ellipse rx="4" ry="15" transform="matrix(-1 0 0 1 85 105)" stroke="#fff" stroke-width="3"/><path stroke="#fff" stroke-width="3" d="M40 134h60"/></svg>