<svg width="140" height="140" viewBox="0 0 140 140" fill="none" xmlns="http://www.w3.org/2000/svg"><circle cx="33" cy="91" r="14" stroke="#fff" stroke-width="3"/><circle cx="108" cy="91" r="14" stroke="#fff" stroke-width="3"/><path d="M129.5 65.377V89.5h-3.202a25.94 25.94 0 00-.316-1.507c-.403-1.68-1.115-3.937-2.352-6.21-2.498-4.591-7.186-9.283-15.63-9.283s-13.132 4.692-15.63 9.283c-1.237 2.273-1.949 4.53-2.352 6.21-.138.573-.24 1.082-.316 1.507H51.298a26.185 26.185 0 00-.316-1.507c-.404-1.68-1.115-3.937-2.352-6.21C46.132 77.192 41.444 72.5 33 72.5s-13.132 4.692-15.63 9.283c-1.237 2.273-1.949 4.53-2.352 6.21-.138.573-.24 1.082-.316 1.507H11V65h70V26.5h27.631L129.5 65.377z" stroke="#fff" stroke-width="3"/><path stroke="#fff" stroke-width="3" d="M11 16h70v49H11zm0 92h119v15H11z"/></svg>