<svg width="140" height="140" viewBox="0 0 140 140" fill="none" xmlns="http://www.w3.org/2000/svg"><path d="M108 38h9.048v12H128M36 37h68m4 46.067c-10.849 4.088-23.188 6.256-37.029 6.256-14.439 0-27.848-2.578-38.971-7M104 25v47.326C94.422 75.333 82.412 77 70.24 77 57.864 77 46.534 75.275 36 72.172V25" stroke="#fff" stroke-width="3" stroke-miterlimit="10"/><path d="M74 77V61h22v13.458M76 61c0-4.418 4.03-8 9-8s9 3.582 9 8m-9-24v16m17.075-46.458h-64.15" stroke="#fff" stroke-width="3" stroke-miterlimit="10"/><mask id="a" fill="#fff"><path d="M37.857 5L18 25h104L102.211 5.113"/></mask><path d="M18 25l-2.129-2.114L10.794 28H18v-3zm104 0v3h7.217l-5.09-5.116L122 25zM35.728 2.886l-19.857 20 4.258 4.228 19.857-20-4.258-4.228zM18 28h104v-6H18v6zm106.127-5.116l-19.79-19.887-4.253 4.232 19.789 19.887 4.254-4.232z" fill="#fff" mask="url(#a)"/><path d="M107 111h20m-114 0h20" stroke="#fff" stroke-width="3" stroke-miterlimit="10"/><path stroke="#fff" stroke-width="3" d="M32 24h77v109H32z"/><path d="M70.498 90h.018c14.215-.25 23.878-1.88 29.998-3.453 3.06-.787 5.235-1.56 6.649-2.139.564-.23 1.007-.43 1.337-.588v48.68h-77V83.792c.362.162.862.373 1.505.62 1.508.578 3.807 1.35 6.992 2.136 6.37 1.572 16.285 3.201 30.5 3.452z" fill="#fff" stroke="#fff"/></svg>