<svg width="140" height="140" viewBox="0 0 140 140" fill="none" xmlns="http://www.w3.org/2000/svg"><path d="M108 122H32" stroke="#fff" stroke-width="3" stroke-miterlimit="10"/><mask id="a" fill="#fff"><path d="M14 110V6h112v104"/></mask><path d="M14 6V3h-3v3h3zm112 0h3V3h-3v3zM17 110V6h-6v104h6zM14 9h112V3H14v6zm109-3v104h6V6h-6z" fill="#fff" mask="url(#a)"/><mask id="b" fill="#fff"><path d="M34 134l-2.71-24H6.502L4 134"/></mask><path d="M31.29 110l2.981-.337-.3-2.663H31.29v3zm-24.788 0v-3H3.798l-.28 2.689 2.984.311zm30.48 23.663l-2.71-24-5.963.674 2.71 24 5.962-.674zM31.29 107H20.423v6H31.29v-6zm-10.867 0h-3.399v6h3.399v-6zm-3.399 0H6.502v6h10.522v-6zm-13.506 2.689l-2.502 24 5.968.622 2.501-24-5.967-.622z" fill="#fff" mask="url(#b)"/><mask id="c" fill="#fff"><path d="M136 134l-2.71-24h-24.788L106 134"/></mask><path d="M133.29 110l2.981-.337-.301-2.663h-2.68v3zm-24.788 0v-3h-2.704l-.28 2.689 2.984.311zm30.479 23.663l-2.71-24-5.962.674 2.71 24 5.962-.674zM133.29 107h-10.867v6h10.867v-6zm-10.867 0h-3.399v6h3.399v-6zm-3.399 0h-10.522v6h10.522v-6zm-13.506 2.689l-2.502 24 5.968.622 2.501-24-5.967-.622z" fill="#fff" mask="url(#c)"/><path d="M115 20H25v80h90V20zM24 83h90" stroke="#fff" stroke-width="3" stroke-miterlimit="10"/><mask id="d" fill="#fff"><path d="M42.77 28.535v-2.727H40v2.727h2.77z"/></mask><path d="M42.77 25.808h3v-3h-3v3zm0 2.727v3h3v-3h-3zm-2.77 0h-3v3h3v-3zm0-2.727v-3h-3v3h3zm-.23 0v2.727h6v-2.727h-6zm3-.273H40v6h2.77v-6zm.23 3v-2.727h-6v2.727h6zm-3 .273h2.77v-6H40v6z" fill="#fff" mask="url(#d)"/><mask id="e" fill="#fff"><path d="M62.154 28.535v-2.727h-2.77v2.727h2.77z"/></mask><path d="M62.154 25.808h3v-3h-3v3zm0 2.727v3h3v-3h-3zm-2.77 0h-3v3h3v-3zm0-2.727v-3h-3v3h3zm-.23 0v2.727h6v-2.727h-6zm3-.273h-2.77v6h2.77v-6zm.23 3v-2.727h-6v2.727h6zm-3 .273h2.77v-6h-2.77v6z" fill="#fff" mask="url(#e)"/><mask id="f" fill="#fff"><path d="M80.615 28.535v-2.727h-2.769v2.727h2.77z"/></mask><path d="M80.615 25.808h3v-3h-3v3zm0 2.727v3h3v-3h-3zm-2.769 0h-3v3h3v-3zm0-2.727v-3h-3v3h3zm-.23 0v2.727h6v-2.727h-6zm3-.273h-2.77v6h2.77v-6zm.23 3v-2.727h-6v2.727h6zm-3 .273h2.77v-6h-2.77v6z" fill="#fff" mask="url(#f)"/><mask id="g" fill="#fff"><path d="M100 28.535v-2.727h-2.77v2.727H100z"/></mask><path d="M100 25.808h3v-3h-3v3zm0 2.727v3h3v-3h-3zm-2.77 0h-3v3h3v-3zm0-2.727v-3h-3v3h3zm-.23 0v2.727h6v-2.727h-6zm3-.273h-2.77v6H100v-6zm.231 3v-2.727h-6v2.727h6zm-3 .273H100v-6h-2.77v6z" fill="#fff" mask="url(#g)"/><mask id="h" fill="#fff"><path d="M42.77 40.353v-2.727H40v2.727h2.77z"/></mask><path d="M42.77 37.626h3v-3h-3v3zm0 2.727v3h3v-3h-3zm-2.77 0h-3v3h3v-3zm0-2.727v-3h-3v3h3zm-.23 0v2.727h6v-2.727h-6zm3-.273H40v6h2.77v-6zm.23 3v-2.727h-6v2.727h6zm-3 .273h2.77v-6H40v6z" fill="#fff" mask="url(#h)"/><mask id="i" fill="#fff"><path d="M62.154 40.353v-2.727h-2.77v2.727h2.77z"/></mask><path d="M62.154 37.626h3v-3h-3v3zm0 2.727v3h3v-3h-3zm-2.77 0h-3v3h3v-3zm0-2.727v-3h-3v3h3zm-.23 0v2.727h6v-2.727h-6zm3-.273h-2.77v6h2.77v-6zm.23 3v-2.727h-6v2.727h6zm-3 .273h2.77v-6h-2.77v6z" fill="#fff" mask="url(#i)"/><mask id="j" fill="#fff"><path d="M80.615 40.353v-2.727h-2.769v2.727h2.77z"/></mask><path d="M80.615 37.626h3v-3h-3v3zm0 2.727v3h3v-3h-3zm-2.769 0h-3v3h3v-3zm0-2.727v-3h-3v3h3zm-.23 0v2.727h6v-2.727h-6zm3-.273h-2.77v6h2.77v-6zm.23 3v-2.727h-6v2.727h6zm-3 .273h2.77v-6h-2.77v6z" fill="#fff" mask="url(#j)"/><mask id="k" fill="#fff"><path d="M100 40.353v-2.727h-2.77v2.727H100z"/></mask><path d="M100 37.626h3v-3h-3v3zm0 2.727v3h3v-3h-3zm-2.77 0h-3v3h3v-3zm0-2.727v-3h-3v3h3zm-.23 0v2.727h6v-2.727h-6zm3-.273h-2.77v6H100v-6zm.231 3v-2.727h-6v2.727h6zm-3 .273H100v-6h-2.77v6z" fill="#fff" mask="url(#k)"/><mask id="l" fill="#fff"><path d="M42.77 52.172v-2.727H40v2.727h2.77z"/></mask><path d="M42.77 49.445h3v-3h-3v3zm0 2.727v3h3v-3h-3zm-2.77 0h-3v3h3v-3zm0-2.727v-3h-3v3h3zm-.23 0v2.727h6v-2.727h-6zm3-.273H40v6h2.77v-6zm.23 3v-2.727h-6v2.727h6zm-3 .273h2.77v-6H40v6z" fill="#fff" mask="url(#l)"/><mask id="m" fill="#fff"><path d="M62.154 52.172v-2.727h-2.77v2.727h2.77z"/></mask><path d="M62.154 49.445h3v-3h-3v3zm0 2.727v3h3v-3h-3zm-2.77 0h-3v3h3v-3zm0-2.727v-3h-3v3h3zm-.23 0v2.727h6v-2.727h-6zm3-.273h-2.77v6h2.77v-6zm.23 3v-2.727h-6v2.727h6zm-3 .273h2.77v-6h-2.77v6z" fill="#fff" mask="url(#m)"/><mask id="n" fill="#fff"><path d="M80.615 52.172v-2.727h-2.769v2.727h2.77z"/></mask><path d="M80.615 49.445h3v-3h-3v3zm0 2.727v3h3v-3h-3zm-2.769 0h-3v3h3v-3zm0-2.727v-3h-3v3h3zm-.23 0v2.727h6v-2.727h-6zm3-.273h-2.77v6h2.77v-6zm.23 3v-2.727h-6v2.727h6zm-3 .273h2.77v-6h-2.77v6z" fill="#fff" mask="url(#n)"/><mask id="o" fill="#fff"><path d="M100 52.172v-2.727h-2.77v2.727H100z"/></mask><path d="M100 49.445h3v-3h-3v3zm0 2.727v3h3v-3h-3zm-2.77 0h-3v3h3v-3zm0-2.727v-3h-3v3h3zm-.23 0v2.727h6v-2.727h-6zm3-.273h-2.77v6H100v-6zm.231 3v-2.727h-6v2.727h6zm-3 .273H100v-6h-2.77v6z" fill="#fff" mask="url(#o)"/><mask id="p" fill="#fff"><path d="M42.77 63.99v-2.727H40v2.727h2.77z"/></mask><path d="M42.77 61.263h3v-3h-3v3zm0 2.727v3h3v-3h-3zm-2.77 0h-3v3h3v-3zm0-2.727v-3h-3v3h3zm-.23 0v2.727h6v-2.727h-6zm3-.273H40v6h2.77v-6zm.23 3v-2.727h-6v2.727h6zm-3 .273h2.77v-6H40v6z" fill="#fff" mask="url(#p)"/><mask id="q" fill="#fff"><path d="M62.154 63.99v-2.727h-2.77v2.727h2.77z"/></mask><path d="M62.154 61.263h3v-3h-3v3zm0 2.727v3h3v-3h-3zm-2.77 0h-3v3h3v-3zm0-2.727v-3h-3v3h3zm-.23 0v2.727h6v-2.727h-6zm3-.273h-2.77v6h2.77v-6zm.23 3v-2.727h-6v2.727h6zm-3 .273h2.77v-6h-2.77v6z" fill="#fff" mask="url(#q)"/><mask id="r" fill="#fff"><path d="M80.615 63.99v-2.727h-2.769v2.727h2.77z"/></mask><path d="M80.615 61.263h3v-3h-3v3zm0 2.727v3h3v-3h-3zm-2.769 0h-3v3h3v-3zm0-2.727v-3h-3v3h3zm-.23 0v2.727h6v-2.727h-6zm3-.273h-2.77v6h2.77v-6zm.23 3v-2.727h-6v2.727h6zm-3 .273h2.77v-6h-2.77v6z" fill="#fff" mask="url(#r)"/><mask id="s" fill="#fff"><path d="M100 63.99v-2.727h-2.77v2.727H100z"/></mask><path d="M100 61.263h3v-3h-3v3zm0 2.727v3h3v-3h-3zm-2.77 0h-3v3h3v-3zm0-2.727v-3h-3v3h3zm-.23 0v2.727h6v-2.727h-6zm3-.273h-2.77v6H100v-6zm.231 3v-2.727h-6v2.727h6zm-3 .273H100v-6h-2.77v6z" fill="#fff" mask="url(#s)"/><mask id="t" fill="#fff"><path d="M80.615 75.808v-2.727h-2.769v2.727h2.77z"/></mask><path d="M80.615 73.08h3v-3h-3v3zm0 2.728v3h3v-3h-3zm-2.769 0h-3v3h3v-3zm0-2.727v-3h-3v3h3zm-.23 0v2.727h6v-2.727h-6zm3-.273h-2.77v6h2.77v-6zm.23 3v-2.727h-6v2.727h6zm-3 .273h2.77v-6h-2.77v6z" fill="#fff" mask="url(#t)"/><mask id="u" fill="#fff"><path d="M42.77 75.808v-2.727H40v2.727h2.77z"/></mask><path d="M42.77 73.08h3v-3h-3v3zm0 2.728v3h3v-3h-3zm-2.77 0h-3v3h3v-3zm0-2.727v-3h-3v3h3zm-.23 0v2.727h6v-2.727h-6zm3-.273H40v6h2.77v-6zm.23 3v-2.727h-6v2.727h6zm-3 .273h2.77v-6H40v6z" fill="#fff" mask="url(#u)"/><mask id="v" fill="#fff"><path d="M62.154 75.808v-2.727h-2.77v2.727h2.77z"/></mask><path d="M62.154 73.08h3v-3h-3v3zm0 2.728v3h3v-3h-3zm-2.77 0h-3v3h3v-3zm0-2.727v-3h-3v3h3zm-.23 0v2.727h6v-2.727h-6zm3-.273h-2.77v6h2.77v-6zm.23 3v-2.727h-6v2.727h6zm-3 .273h2.77v-6h-2.77v6z" fill="#fff" mask="url(#v)"/><mask id="w" fill="#fff"><path d="M100 75.808v-2.727h-2.77v2.727H100z"/></mask><path d="M100 73.08h3v-3h-3v3zm0 2.728v3h3v-3h-3zm-2.77 0h-3v3h3v-3zm0-2.727v-3h-3v3h3zm-.23 0v2.727h6v-2.727h-6zm3-.273h-2.77v6H100v-6zm.231 3v-2.727h-6v2.727h6zm-3 .273H100v-6h-2.77v6z" fill="#fff" mask="url(#w)"/></svg>