<svg width="140" height="140" viewBox="0 0 140 140" fill="none" xmlns="http://www.w3.org/2000/svg"><path d="M26 130V76H13v54M26 10v36H13V10m114 0v36h-13V10m13 120V76h-13v54M13 60h114v16H13zm57-14h57v14H70z" stroke="#fff" stroke-width="3"/><ellipse cx="81" cy="53" rx="3" ry="4" stroke="#fff" stroke-width="3"/><ellipse cx="93" cy="53" rx="3" ry="4" stroke="#fff" stroke-width="3"/><ellipse cx="104" cy="53" rx="3" ry="4" stroke="#fff" stroke-width="3"/><ellipse cx="116" cy="53" rx="3" ry="4" stroke="#fff" stroke-width="3"/><path stroke="#fff" stroke-width="3" d="M13 46h57v14H13z"/><ellipse cx="23" cy="53" rx="3" ry="4" stroke="#fff" stroke-width="3"/><ellipse cx="35" cy="53" rx="3" ry="4" stroke="#fff" stroke-width="3"/><ellipse cx="47" cy="53" rx="3" ry="4" stroke="#fff" stroke-width="3"/><ellipse cx="59" cy="53" rx="3" ry="4" stroke="#fff" stroke-width="3"/></svg>