<svg width="140" height="140" viewBox="0 0 140 140" fill="none" xmlns="http://www.w3.org/2000/svg"><path d="M108.5 64.796l-23.392-.046V35.5H108.5v29.296zM76.335 35.5v86H31.5v-86h44.835zm8.773 38.02H108.5v47.98H85.108V73.52z" stroke="#fff" stroke-width="3" stroke-miterlimit="10"/><path d="M24.5 126.5v-97h91v97h-91zm-17-100v-14h125v14H7.5z" stroke="#fff" stroke-width="3" stroke-miterlimit="10"/><mask id="a" fill="#fff"><path d="M42 120v-20h20v20"/></mask><path d="M42 100v-3h-3v3h3zm20 0h3v-3h-3v3zm-17 20v-20h-6v20h6zm-3-17h20v-6H42v6zm17-3v20h6v-20h-6z" fill="#fff" mask="url(#a)"/><mask id="b" fill="#fff"><path d="M40 85l7 5.043V103"/></mask><path d="M47 90.043h3v-1.536l-1.246-.898L47 90.043zm-8.754-2.609l7 5.043 3.508-4.868-7-5.043-3.508 4.868zM44 90.044V103h6V90.043h-6z" fill="#fff" mask="url(#b)"/><path d="M52 100V77" stroke="#fff" stroke-width="3" stroke-miterlimit="10"/><mask id="c" fill="#fff"><path d="M57 102l5.55-10L69 96.26"/></mask><path d="M62.55 92l1.653-2.503-2.704-1.786-1.573 2.833L62.55 92zm-2.927 11.456l5.55-10-5.247-2.912-5.55 10 5.247 2.912zm1.273-8.953l6.45 4.26 3.307-5.006-6.45-4.26-3.307 5.006z" fill="#fff" mask="url(#c)"/></svg>