<svg width="140" height="140" viewBox="0 0 140 140" fill="none" xmlns="http://www.w3.org/2000/svg"><path d="M57.69 18.5v5h-9v-5h9zM55.19 30v-6m-4 0v6m44.5-11.5v5h-9v-5h9zM93.19 30v-6m-4 0v6m-44.5 38.5v5h-9v-5h9zM42.19 80v-6m-4 0v6m-8.5-11.5v5h-9v-5h9zM27.19 80v-6m-4 0v6m101.501-11.5v5h-9v-5h9zm-2.5 11.5v-6m-4 0v6m-8.5-11.5v5h-9v-5h9zm-2.5 11.5v-6m-4 0v6M68.19 67h8V30h-8v37z" stroke="#fff" stroke-width="3" stroke-miterlimit="10"/><path stroke="#fff" stroke-width="6" d="M46 31h52M17 81h110"/><path d="M59.19 60h9v7h8v-7h9v20h-26V60zm26 75V81h-26v54M52 23L9 39M96 6L58 20m75-14L96 20M37 73L9 84m79-60L9 53m124-15L45 70m56 3L9 107m124-46l-24 9" stroke="#fff" stroke-width="3"/></svg>