<svg width="140" height="140" viewBox="0 0 140 140" fill="none" xmlns="http://www.w3.org/2000/svg"><path d="M20.5 133.5v-1h13v1h-13z" stroke="#fff" stroke-width="3" stroke-miterlimit="10"/><mask id="a" fill="#fff"><path d="M15 36.28L70.202 4 125 37"/></mask><path d="M70.202 4l1.548-2.57-1.525-.918-1.537.898L70.202 4zM16.514 38.87L71.717 6.59l-3.029-5.18-55.202 32.28 3.028 5.18zm52.14-32.3l54.798 33 3.096-5.14-54.798-33-3.095 5.14z" fill="#fff" mask="url(#a)"/><path d="M23.5 119.5v-9h93v9h-93z" fill="#fff" stroke="#fff" stroke-width="3" stroke-miterlimit="10"/><path d="M70.405 17.727L116.5 44.54v65.96h-93V43.956l46.905-26.23z" stroke="#fff" stroke-width="3" stroke-miterlimit="10"/><path d="M61.5 110.5v-35h19v35h-19z" stroke="#fff" stroke-width="3" stroke-miterlimit="10"/><mask id="b" fill="#fff"><path d="M76 94v-3h-3v3h3z"/></mask><path d="M76 91h3v-3h-3v3zm0 3v3h3v-3h-3zm-3 0h-3v3h3v-3zm0-3v-3h-3v3h3zm0 0v3h6v-3h-6zm3 0h-3v6h3v-6zm0 3v-3h-6v3h6zm-3 0h3v-6h-3v6z" fill="#fff" mask="url(#b)"/><path stroke="#fff" stroke-width="3" d="M24 120h7v13h-7z"/><path d="M106.5 133.5v-1h13v1h-13z" stroke="#fff" stroke-width="3" stroke-miterlimit="10"/><path stroke="#fff" stroke-width="3" d="M110 120h7v13h-7z"/></svg>