<svg width="140" height="140" viewBox="0 0 140 140" fill="none" xmlns="http://www.w3.org/2000/svg"><path fill-rule="evenodd" clip-rule="evenodd" d="M10 56.5h120v27H10v-27zM34.5 70a8 8 0 11-16 0 8 8 0 0116 0zm10 8a8 8 0 100-16 8 8 0 000 16zm26-8a8 8 0 11-16 0 8 8 0 0116 0zm10 8a8 8 0 100-16 8 8 0 000 16zm26-8a8 8 0 11-16 0 8 8 0 0116 0zm10 8a8 8 0 100-16 8 8 0 000 16z" fill="#fff"/><path d="M130 56.5h1.5V55H130v1.5zm-120 0V55H8.5v1.5H10zm120 27V85h1.5v-1.5H130zm-120 0H8.5V85H10v-1.5zM130 55H10v3h120v-3zm1.5 28.5v-27h-3v27h3zM10 85h120v-3H10v3zM8.5 56.5v27h3v-27h-3zm18 23A9.5 9.5 0 0036 70h-3a6.5 6.5 0 01-6.5 6.5v3zM17 70a9.5 9.5 0 009.5 9.5v-3A6.5 6.5 0 0120 70h-3zm9.5-9.5A9.5 9.5 0 0017 70h3a6.5 6.5 0 016.5-6.5v-3zM36 70a9.5 9.5 0 00-9.5-9.5v3A6.5 6.5 0 0133 70h3zm15 0a6.5 6.5 0 01-6.5 6.5v3A9.5 9.5 0 0054 70h-3zm-6.5-6.5A6.5 6.5 0 0151 70h3a9.5 9.5 0 00-9.5-9.5v3zM38 70a6.5 6.5 0 016.5-6.5v-3A9.5 9.5 0 0035 70h3zm6.5 6.5A6.5 6.5 0 0138 70h-3a9.5 9.5 0 009.5 9.5v-3zm18 3A9.5 9.5 0 0072 70h-3a6.5 6.5 0 01-6.5 6.5v3zM53 70a9.5 9.5 0 009.5 9.5v-3A6.5 6.5 0 0156 70h-3zm9.5-9.5A9.5 9.5 0 0053 70h3a6.5 6.5 0 016.5-6.5v-3zM72 70a9.5 9.5 0 00-9.5-9.5v3A6.5 6.5 0 0169 70h3zm15 0a6.5 6.5 0 01-6.5 6.5v3A9.5 9.5 0 0090 70h-3zm-6.5-6.5A6.5 6.5 0 0187 70h3a9.5 9.5 0 00-9.5-9.5v3zM74 70a6.5 6.5 0 016.5-6.5v-3A9.5 9.5 0 0071 70h3zm6.5 6.5A6.5 6.5 0 0174 70h-3a9.5 9.5 0 009.5 9.5v-3zm18 3A9.5 9.5 0 00108 70h-3a6.5 6.5 0 01-6.5 6.5v3zM89 70a9.5 9.5 0 009.5 9.5v-3A6.5 6.5 0 0192 70h-3zm9.5-9.5A9.5 9.5 0 0089 70h3a6.5 6.5 0 016.5-6.5v-3zM108 70a9.5 9.5 0 00-9.5-9.5v3A6.5 6.5 0 01105 70h3zm15 0a6.5 6.5 0 01-6.5 6.5v3A9.5 9.5 0 00126 70h-3zm-6.5-6.5A6.5 6.5 0 01123 70h3a9.5 9.5 0 00-9.5-9.5v3zM110 70a6.5 6.5 0 016.5-6.5v-3A9.5 9.5 0 00107 70h3zm6.5 6.5A6.5 6.5 0 01110 70h-3a9.5 9.5 0 009.5 9.5v-3z" fill="#fff"/><path d="M23 136V82H10v54m120 0V82h-13v54m0-132v54h13V4M10 4v54h13V4" stroke="#fff" stroke-width="3"/></svg>