<svg width="140" height="140" viewBox="0 0 140 140" fill="none" xmlns="http://www.w3.org/2000/svg"><mask id="a" fill="#fff"><path d="M42 108v-3.874c0-1.717 2.028-3.126 4.5-3.126s4.5 1.409 4.5 3.126V108"/></mask><path d="M45 108v-3.874h-6V108h6zm0-3.874c0 .41-.241.448.035.257.259-.18.771-.383 1.465-.383v-6c-1.778 0-3.516.501-4.888 1.455C40.255 100.397 39 102 39 104.126h6zm1.5-.126c.694 0 1.206.203 1.465.383.276.191.035.153.035-.257h6c0-2.127-1.255-3.729-2.612-4.67C50.016 98.5 48.278 98 46.5 98v6zm1.5.126V108h6v-3.874h-6z" fill="#fff" mask="url(#a)"/><mask id="b" fill="#fff"><path d="M91 108v-3.874c0-1.717 2.028-3.126 4.5-3.126s4.5 1.409 4.5 3.126V108"/></mask><path d="M94 108v-3.874h-6V108h6zm0-3.874c0 .41-.241.448.034.257.26-.18.772-.383 1.466-.383v-6c-1.778 0-3.516.501-4.888 1.455C89.255 100.397 88 102 88 104.126h6zm1.5-.126c.694 0 1.206.203 1.466.383.275.192.034.153.034-.257h6c0-2.127-1.255-3.729-2.612-4.67C99.015 98.5 97.278 98 95.5 98v6zm1.5.126V108h6v-3.874h-6z" fill="#fff" mask="url(#b)"/><path fill="#fff" stroke="#fff" stroke-width="3" d="M25 110h91v23H25z"/><path d="M82.5 84.5h-25v-25h25v25zM70 58v28" stroke="#fff" stroke-width="3" stroke-miterlimit="10"/><mask id="c" fill="#fff"><path d="M16 37.301L70.199 6 124 38"/></mask><path d="M70.199 6l1.533-2.578-1.51-.9-1.524.88L70.198 6zM17.5 39.899L71.7 8.598l-3.002-5.196L14.5 34.703l3 5.196zm51.165-31.32l53.801 32 3.068-5.157-53.802-32-3.067 5.156z" fill="#fff" mask="url(#c)"/><path d="M70.396 18.727L115.5 44.963V109.5h-91V44.392l45.896-25.665z" stroke="#fff" stroke-width="3" stroke-miterlimit="10"/></svg>