<svg width="140" height="140" viewBox="0 0 140 140" fill="none" xmlns="http://www.w3.org/2000/svg"><path d="M109.367 91.17V114m-5.633-22.83V114M42 113v-3.874c0-1.717 1.424-3.126 3.159-3.126 1.735 0 3.158 1.409 3.158 3.126V113m43.366 0v-3.874c0-1.717 1.423-3.126 3.158-3.126 1.735 0 3.159 1.409 3.159 3.126V113M42 90v-3.874C42 84.409 43.424 83 45.159 83c1.735 0 3.158 1.409 3.158 3.126V90m43.366 0v-3.874c0-1.717 1.423-3.126 3.158-3.126C96.576 83 98 84.409 98 86.126V90M15 36.301L70.202 5 125 37" stroke="#fff" stroke-width="3" stroke-miterlimit="10"/><path d="M70.387 16.737L114.5 43.02V91.5h-89V42.447l44.887-25.71zM18.145 133.5l6.937-19h89.836l6.937 19H18.145zM109 114l-8 20" stroke="#fff" stroke-width="3" stroke-miterlimit="10"/><path d="M77 67.576H63v-14h14v14z" stroke="#fff" stroke-width="3" stroke-miterlimit="10"/><path stroke="#fff" stroke-width="3" d="M26 92h89v23H26z"/></svg>