<svg width="160" height="220" viewBox="0 0 160 220" fill="none" xmlns="http://www.w3.org/2000/svg"><path d="M35.382 173.99h.15c.766 0 1.46.173 2.085.52a3.615 3.615 0 011.463 1.449c.351.624.526 1.326.526 2.105 0 .775-.175 1.472-.526 2.092a3.663 3.663 0 01-1.45 1.436c-.614.342-1.305.515-2.07.519h-.178v1.299H33.72v-1.299h-.164c-.77 0-1.47-.171-2.099-.512a3.69 3.69 0 01-1.463-1.443c-.342-.615-.513-1.308-.513-2.078 0-.779.174-1.481.52-2.105a3.662 3.662 0 011.456-1.456c.624-.351 1.324-.527 2.099-.527h.164v-1.353h1.66v1.353zm-1.825 1.388c-.766 0-1.365.239-1.798.718-.429.478-.643 1.139-.643 1.982 0 .82.214 1.468.643 1.942.428.469 1.034.704 1.818.704h.144v-5.346h-.164zm1.825 0v5.346h.164c.766 0 1.36-.24 1.784-.718.428-.479.643-1.126.643-1.942 0-.834-.215-1.49-.643-1.968-.424-.479-1.025-.718-1.805-.718h-.143zm8.155 5.243l1.504-5.017h1.77l-2.939 8.517c-.451 1.244-1.217 1.866-2.297 1.866-.241 0-.508-.041-.8-.123v-1.285l.315.021c.42 0 .734-.078.943-.233.214-.15.383-.405.506-.765l.24-.636-2.598-7.362h1.79l1.566 5.017zm10.5 2.379h-1.661v-2.987h-2.878V183h-1.661v-7.396h1.661v3.083h2.878v-3.083h1.661V183zm1.805-1.326c.46-.515.768-1.003.923-1.463.16-.465.255-1.057.287-1.777l.096-2.83h5.133v6.07h1.026v3.527h-1.655V183h-4.744v2.201h-1.681l.006-3.527h.609zm1.948 0h2.837v-4.642h-1.866l-.048 1.415c-.064 1.358-.371 2.434-.923 3.227zM68.912 183c-.073-.141-.137-.371-.191-.69a2.587 2.587 0 01-1.942.827c-.742 0-1.349-.212-1.818-.636a2.034 2.034 0 01-.704-1.572c0-.789.291-1.393.875-1.812.588-.424 1.426-.636 2.515-.636h1.019v-.485c0-.383-.107-.688-.321-.916-.215-.232-.54-.349-.978-.349-.378 0-.688.096-.93.288a.867.867 0 00-.362.717h-1.66c0-.405.133-.784.402-1.134a2.669 2.669 0 011.094-.834 3.87 3.87 0 011.552-.301c.866 0 1.556.219 2.071.656.515.433.78 1.044.793 1.832v3.336c0 .665.094 1.196.28 1.593V183h-1.695zm-1.825-1.196c.328 0 .636-.08.923-.24.291-.159.51-.373.656-.642v-1.395h-.895c-.616 0-1.078.107-1.388.322-.31.214-.465.517-.465.909 0 .319.105.574.314.765.215.187.5.281.855.281zm9.372-.848l2.188-5.352h2.078V183h-1.661v-4.895L77.026 183h-1.128l-2.043-4.922V183h-1.662v-7.396h2.092l2.174 5.352zm9.393 2.181c-1.053 0-1.908-.331-2.564-.991-.652-.666-.977-1.55-.977-2.653v-.205c0-.738.14-1.397.423-1.976a3.274 3.274 0 011.204-1.36 3.176 3.176 0 011.722-.485c1.007 0 1.784.321 2.331.964.552.642.827 1.551.827 2.727v.67h-4.833c.05.611.253 1.094.609 1.449.36.356.81.534 1.353.534.761 0 1.381-.308 1.86-.923l.895.854a3.01 3.01 0 01-1.19 1.032 3.715 3.715 0 01-1.66.363zm-.199-6.337c-.455 0-.825.159-1.107.478-.278.319-.456.764-.533 1.333h3.165v-.123c-.037-.556-.185-.975-.445-1.258-.26-.287-.62-.43-1.08-.43zM96.38 183h-1.661v-2.987H91.84V183h-1.661v-7.396h1.66v3.083h2.879v-3.083h1.66V183zm7.595-6.077h-2.4V183h-1.66v-6.077H97.54v-1.319h6.433v1.319zM111.35 183h-1.662v-2.987h-2.877V183h-1.662v-7.396h1.662v3.083h2.877v-3.083h1.662V183zm3.561-5.045h1.627c.606 0 1.135.105 1.586.315.451.209.793.503 1.025.881.237.379.356.818.356 1.32 0 .761-.269 1.371-.807 1.832-.538.46-1.253.692-2.146.697h-3.302v-7.396h1.661v2.351zm7.485 5.045h-1.661v-7.396h1.661V183zm-7.485-3.712v2.386h1.62c.406 0 .725-.1.957-.301.237-.205.356-.494.356-.868s-.116-.668-.349-.882c-.228-.219-.538-.33-.93-.335h-1.654zm12.735 3.849c-1.052 0-1.907-.331-2.563-.991-.652-.666-.978-1.55-.978-2.653v-.205c0-.738.142-1.397.424-1.976a3.273 3.273 0 011.203-1.36 3.179 3.179 0 011.723-.485c1.007 0 1.784.321 2.331.964.552.642.827 1.551.827 2.727v.67h-4.833c.05.611.253 1.094.609 1.449.36.356.811.534 1.353.534.761 0 1.381-.308 1.86-.923l.895.854a3.012 3.012 0 01-1.189 1.032 3.719 3.719 0 01-1.662.363zm-.198-6.337c-.455 0-.825.159-1.107.478-.278.319-.456.764-.533 1.333h3.165v-.123c-.037-.556-.185-.975-.445-1.258-.259-.287-.619-.43-1.08-.43zm-79.385 15.214c.93 0 1.674.312 2.235.936.56.62.84 1.463.84 2.529v.083c0 1.066-.305 1.93-.915 2.59-.606.661-1.431.992-2.475.992-1.016 0-1.837-.338-2.46-1.012-.625-.675-.937-1.595-.937-2.762v-.478c0-1.595.282-2.858.847-3.788.565-.929 1.408-1.51 2.53-1.743.628-.127 1.034-.262 1.216-.403a.708.708 0 00.28-.588h1.34c0 .46-.075.834-.225 1.121-.15.287-.38.522-.69.704-.31.178-.844.347-1.6.506-.693.146-1.221.406-1.586.779-.36.374-.602.891-.725 1.552.661-.679 1.436-1.018 2.325-1.018zm-.329 1.333c-.537 0-.959.182-1.264.547-.306.36-.458.916-.458 1.668 0 .71.15 1.264.45 1.661.302.396.73.594 1.286.594.552 0 .978-.198 1.278-.594.306-.401.458-1.003.458-1.805 0-.638-.152-1.142-.458-1.511-.3-.373-.731-.56-1.292-.56zM56.86 199c-.073-.141-.136-.371-.191-.69a2.587 2.587 0 01-1.941.827c-.743 0-1.35-.212-1.819-.636a2.034 2.034 0 01-.704-1.572c0-.789.292-1.393.875-1.812.588-.424 1.427-.636 2.516-.636h1.018v-.485c0-.383-.107-.688-.321-.916-.214-.232-.54-.349-.978-.349-.378 0-.688.096-.93.288a.867.867 0 00-.362.717h-1.66c0-.405.134-.784.403-1.134a2.67 2.67 0 011.093-.834 3.87 3.87 0 011.552-.301c.866 0 1.556.219 2.071.656.515.433.78 1.044.793 1.832v3.336c0 .665.094 1.196.28 1.593V199H56.86zm-1.825-1.196c.328 0 .636-.08.923-.24.292-.159.51-.373.656-.642v-1.395h-.895c-.616 0-1.078.107-1.388.322-.31.214-.465.517-.465.909 0 .319.105.574.315.765.214.187.499.281.854.281zm11.266-6.2V199H64.64v-6.057h-2.092l-.137 2.578c-.087 1.239-.326 2.13-.718 2.672-.387.538-.982.807-1.784.807h-.512l-.007-1.381.341-.034c.365-.05.63-.271.793-.663.169-.397.276-1.117.322-2.16l.136-3.158h5.319zm4.395 4.47h-.84V199h-1.662v-7.396h1.662v2.953h.73l2.045-2.953h2.05l-2.672 3.541L74.907 199h-2.16l-2.05-2.926zm9.742-4.47h1.654V199h-1.654v-4.936l-2.9 4.936h-1.654v-7.396h1.654v4.935l2.898-4.935zm6.931 3.349c0-1.053.141-2.051.424-2.994a8.176 8.176 0 011.244-2.536c.547-.748 1.126-1.272 1.736-1.572l.329.97c-.643.488-1.165 1.233-1.566 2.236-.396.998-.613 2.142-.65 3.431l-.006.588c0 1.381.194 2.614.58 3.698.393 1.08.94 1.903 1.642 2.468l-.329.923c-.61-.301-1.191-.827-1.743-1.579a8.296 8.296 0 01-1.244-2.529c-.278-.944-.417-1.978-.417-3.104zm11.307-4.512h-4.587v2.413h2.037c.73 0 1.365.126 1.907.376.543.251.955.607 1.237 1.067.283.46.424.993.424 1.599 0 .93-.316 1.678-.95 2.243-.629.565-1.488.852-2.577.861h-3.808v-9.953h6.317v1.394zm-4.587 3.801v3.377h2.03c.584 0 1.037-.157 1.36-.472.329-.319.493-.74.493-1.264 0-.501-.16-.898-.479-1.19-.319-.291-.76-.442-1.326-.451h-2.078zm12.53-4.252h.151c.765 0 1.46.173 2.084.52a3.613 3.613 0 011.463 1.449c.351.624.527 1.326.527 2.105 0 .775-.176 1.472-.527 2.092a3.66 3.66 0 01-1.449 1.436c-.615.342-1.306.515-2.071.519h-.178v1.299h-1.661v-1.299h-.164c-.77 0-1.47-.171-2.099-.512a3.693 3.693 0 01-1.463-1.443c-.341-.615-.512-1.308-.512-2.078 0-.779.173-1.481.519-2.105a3.668 3.668 0 011.456-1.456c.625-.351 1.324-.527 2.099-.527h.164v-1.353h1.661v1.353zm-1.825 1.388c-.766 0-1.365.239-1.798.718-.428.478-.642 1.139-.642 1.982 0 .82.214 1.468.642 1.942.428.469 1.035.704 1.818.704h.144v-5.346h-.164zm1.825 0v5.346h.164c.766 0 1.361-.24 1.784-.718.429-.479.643-1.126.643-1.942 0-.834-.214-1.49-.643-1.968-.423-.479-1.025-.718-1.804-.718h-.144zm8.771 3.684c0 1.012-.139 1.99-.417 2.933a8.276 8.276 0 01-1.265 2.564c-.565.774-1.155 1.31-1.77 1.606l-.329-.923c.684-.528 1.224-1.335 1.62-2.42.402-1.089.602-2.331.602-3.725v-.158c0-1.266-.173-2.419-.519-3.459-.347-1.043-.844-1.879-1.491-2.508l-.212-.192.329-.929c.583.282 1.148.783 1.695 1.503a8.17 8.17 0 011.258 2.42c.291.889.455 1.807.492 2.755l.007.533z" fill="#4D4D4D"/><path d="M30.5 143.5v-1h13v1h-13z" stroke="#fff" stroke-width="3" stroke-miterlimit="10"/><mask id="a" fill="#fff"><path d="M25 46.28L80.202 14 135 47"/></mask><path d="M80.202 14l1.548-2.57-1.525-.918-1.537.898L80.202 14zM26.514 48.87l55.203-32.28-3.029-5.18-55.202 32.28 3.028 5.18zm52.14-32.3l54.798 33 3.096-5.14-54.798-33-3.095 5.14z" fill="#fff" mask="url(#a)"/><path d="M33.5 129.5v-9h93v9h-93z" fill="#fff" stroke="#fff" stroke-width="3" stroke-miterlimit="10"/><path d="M80.405 27.727L126.5 54.54v65.96h-93V53.956l46.905-26.23z" stroke="#fff" stroke-width="3" stroke-miterlimit="10"/><path d="M71.5 120.5v-35h19v35h-19z" stroke="#fff" stroke-width="3" stroke-miterlimit="10"/><mask id="b" fill="#fff"><path d="M86 104v-3h-3v3h3z"/></mask><path d="M86 101h3v-3h-3v3zm0 3v3h3v-3h-3zm-3 0h-3v3h3v-3zm0-3v-3h-3v3h3zm0 0v3h6v-3h-6zm3 0h-3v6h3v-6zm0 3v-3h-6v3h6zm-3 0h3v-6h-3v6z" fill="#fff" mask="url(#b)"/><path stroke="#fff" stroke-width="3" d="M34 130h7v13h-7z"/><path d="M116.5 143.5v-1h13v1h-13z" stroke="#fff" stroke-width="3" stroke-miterlimit="10"/><path stroke="#fff" stroke-width="3" d="M120 130h7v13h-7z"/><path stroke="#fff" d="M1 1h159v219H1z"/></svg>